<?xml version="1.0" encoding="UTF-8" standalone="no"?>
<svg
   xmlns:dc="http://purl.org/dc/elements/1.1/"
   xmlns:cc="http://creativecommons.org/ns#"
   xmlns:rdf="http://www.w3.org/1999/02/22-rdf-syntax-ns#"
   xmlns:svg="http://www.w3.org/2000/svg"
   xmlns="http://www.w3.org/2000/svg"
   version="1.1"
   id="svg2"
   xml:space="preserve"
   width="688"
   height="971.33331"
   viewBox="0 0 688 971.33331"><metadata
     id="metadata8"><rdf:RDF><cc:Work
         rdf:about=""><dc:format>image/svg+xml</dc:format><dc:type
           rdf:resource="http://purl.org/dc/dcmitype/StillImage" /></cc:Work></rdf:RDF></metadata><defs
     id="defs6"><clipPath
       clipPathUnits="userSpaceOnUse"
       id="clipPath20"><path
         d="M 7.689e-6,0 H 516.00001 V 728.5 H 7.689e-6 Z"
         id="path18" /></clipPath><clipPath
       clipPathUnits="userSpaceOnUse"
       id="clipPath32"><path
         d="M 7.689e-6,0 H 516.00001 V 728.5 H 7.689e-6 Z"
         id="path30" /></clipPath><clipPath
       clipPathUnits="userSpaceOnUse"
       id="clipPath44"><path
         d="M 7.689e-6,0 H 516.00001 V 728.5 H 7.689e-6 Z"
         id="path42" /></clipPath><clipPath
       clipPathUnits="userSpaceOnUse"
       id="clipPath56"><path
         d="M 7.689e-6,0 H 516.00001 V 728.5 H 7.689e-6 Z"
         id="path54" /></clipPath><clipPath
       clipPathUnits="userSpaceOnUse"
       id="clipPath68"><path
         d="M 7.689e-6,0 H 516.00001 V 728.5 H 7.689e-6 Z"
         id="path66" /></clipPath><clipPath
       clipPathUnits="userSpaceOnUse"
       id="clipPath80"><path
         d="M 7.689e-6,0 H 516.00001 V 728.5 H 7.689e-6 Z"
         id="path78" /></clipPath><clipPath
       clipPathUnits="userSpaceOnUse"
       id="clipPath92"><path
         d="M 7.689e-6,0 H 516.00001 V 728.5 H 7.689e-6 Z"
         id="path90" /></clipPath><clipPath
       clipPathUnits="userSpaceOnUse"
       id="clipPath104"><path
         d="M 7.689e-6,0 H 516.00001 V 728.5 H 7.689e-6 Z"
         id="path102" /></clipPath><clipPath
       clipPathUnits="userSpaceOnUse"
       id="clipPath116"><path
         d="M 7.689e-6,0 H 516.00001 V 728.5 H 7.689e-6 Z"
         id="path114" /></clipPath><clipPath
       clipPathUnits="userSpaceOnUse"
       id="clipPath128"><path
         d="M 7.689e-6,0 H 516.00001 V 728.5 H 7.689e-6 Z"
         id="path126" /></clipPath><clipPath
       clipPathUnits="userSpaceOnUse"
       id="clipPath136"><path
         d="M 7.689e-6,0 H 516.00001 V 728.5 H 7.689e-6 Z"
         id="path134" /></clipPath><clipPath
       clipPathUnits="userSpaceOnUse"
       id="clipPath144"><path
         d="M 7.689e-6,0 H 516.00001 V 728.5 H 7.689e-6 Z"
         id="path142" /></clipPath><clipPath
       clipPathUnits="userSpaceOnUse"
       id="clipPath156"><path
         d="M 7.689e-6,0 H 516.00001 V 728.5 H 7.689e-6 Z"
         id="path154" /></clipPath><clipPath
       clipPathUnits="userSpaceOnUse"
       id="clipPath164"><path
         d="M 7.689e-6,0 H 516.00001 V 728.5 H 7.689e-6 Z"
         id="path162" /></clipPath><clipPath
       clipPathUnits="userSpaceOnUse"
       id="clipPath172"><path
         d="M 7.689e-6,0 H 516.00001 V 728.5 H 7.689e-6 Z"
         id="path170" /></clipPath><clipPath
       clipPathUnits="userSpaceOnUse"
       id="clipPath180"><path
         d="M 7.689e-6,0 H 516.00001 V 728.5 H 7.689e-6 Z"
         id="path178" /></clipPath><clipPath
       clipPathUnits="userSpaceOnUse"
       id="clipPath192"><path
         d="M 7.689e-6,0 H 516.00001 V 728.5 H 7.689e-6 Z"
         id="path190" /></clipPath><clipPath
       clipPathUnits="userSpaceOnUse"
       id="clipPath200"><path
         d="M 7.689e-6,0 H 516.00001 V 728.5 H 7.689e-6 Z"
         id="path198" /></clipPath><clipPath
       clipPathUnits="userSpaceOnUse"
       id="clipPath212"><path
         d="M 7.689e-6,0 H 516.00001 V 728.5 H 7.689e-6 Z"
         id="path210" /></clipPath><clipPath
       clipPathUnits="userSpaceOnUse"
       id="clipPath220"><path
         d="M 7.689e-6,0 H 516.00001 V 728.5 H 7.689e-6 Z"
         id="path218" /></clipPath><clipPath
       clipPathUnits="userSpaceOnUse"
       id="clipPath232"><path
         d="M 7.689e-6,0 H 516.00001 V 728.5 H 7.689e-6 Z"
         id="path230" /></clipPath><clipPath
       clipPathUnits="userSpaceOnUse"
       id="clipPath244"><path
         d="M 7.689e-6,0 H 516.00001 V 728.5 H 7.689e-6 Z"
         id="path242" /></clipPath><clipPath
       clipPathUnits="userSpaceOnUse"
       id="clipPath252"><path
         d="M 7.689e-6,0 H 516.00001 V 728.5 H 7.689e-6 Z"
         id="path250" /></clipPath><clipPath
       clipPathUnits="userSpaceOnUse"
       id="clipPath264"><path
         d="M 7.689e-6,0 H 516.00001 V 728.5 H 7.689e-6 Z"
         id="path262" /></clipPath><clipPath
       clipPathUnits="userSpaceOnUse"
       id="clipPath272"><path
         d="M 7.689e-6,0 H 516.00001 V 728.5 H 7.689e-6 Z"
         id="path270" /></clipPath><clipPath
       clipPathUnits="userSpaceOnUse"
       id="clipPath284"><path
         d="M 7.689e-6,0 H 516.00001 V 728.5 H 7.689e-6 Z"
         id="path282" /></clipPath><clipPath
       clipPathUnits="userSpaceOnUse"
       id="clipPath292"><path
         d="M 7.689e-6,0 H 516.00001 V 728.5 H 7.689e-6 Z"
         id="path290" /></clipPath><clipPath
       clipPathUnits="userSpaceOnUse"
       id="clipPath304"><path
         d="M 7.689e-6,0 H 516.00001 V 728.5 H 7.689e-6 Z"
         id="path302" /></clipPath><clipPath
       clipPathUnits="userSpaceOnUse"
       id="clipPath312"><path
         d="M 7.689e-6,0 H 516.00001 V 728.5 H 7.689e-6 Z"
         id="path310" /></clipPath><clipPath
       clipPathUnits="userSpaceOnUse"
       id="clipPath320"><path
         d="M 7.689e-6,0 H 516.00001 V 728.5 H 7.689e-6 Z"
         id="path318" /></clipPath><clipPath
       clipPathUnits="userSpaceOnUse"
       id="clipPath332"><path
         d="M 7.689e-6,0 H 516.00001 V 728.5 H 7.689e-6 Z"
         id="path330" /></clipPath><clipPath
       clipPathUnits="userSpaceOnUse"
       id="clipPath340"><path
         d="M 7.689e-6,0 H 516.00001 V 728.5 H 7.689e-6 Z"
         id="path338" /></clipPath></defs><g
     id="g10"
     transform="matrix(1.3333333,0,0,-1.3333333,0,971.33333)"><g
       id="g12" /><g
       id="g14"><g
         id="g16"
         clip-path="url(#clipPath20)"><text
           transform="matrix(1,0,0,-1,54.025,644.22)"
           style="font-variant:normal;font-size:10.5px;font-family:UDDigiKyokashoNK;-inkscape-font-specification:UDDigiKyokashoNK-R;writing-mode:lr-tb;fill:#000000;fill-opacity:1;fill-rule:nonzero;stroke:none"
           id="text24"><tspan
             x="0 9.7440004 19.7295 25.221001 35.962502 43.952999 54.6945 62.937 72.922501 81.165001 91.906502 102.648 113.3895 124.131 133.623 144.3645 153.35249 163.842 173.586 182.32201"
             y="0"
             id="tspan22">には、関ヶ原という豪雪地帯を通るのにも関</tspan></text></g></g><g
       id="g26"><g
         id="g28"
         clip-path="url(#clipPath32)"><text
           transform="matrix(1,0,0,-1,54.025,626.22)"
           style="font-variant:normal;font-size:10.5px;font-family:UDDigiKyokashoNK;-inkscape-font-specification:UDDigiKyokashoNK-R;writing-mode:lr-tb;fill:#000000;fill-opacity:1;fill-rule:nonzero;stroke:none"
           id="text36"><tspan
             x="0 10.2375 18.732 28.9695 37.2225 47.459999 57.959999 68.7015 79.2015 89.943001"
             y="0"
             id="tspan34">わらずこの遅延時間の</tspan></text></g></g><g
       id="g38"><g
         id="g40"
         clip-path="url(#clipPath44)"><text
           transform="matrix(1,0,0,-1,154.08,626.22)"
           style="font-variant:normal;font-size:10.5px;font-family:UDDigiKyokashoNK;-inkscape-font-specification:UDDigiKyokashoNK-R;writing-mode:lr-tb;fill:#000000;fill-opacity:1;fill-rule:nonzero;stroke:none"
           id="text48"><tspan
             x="0 10.7499"
             y="0"
             id="tspan46">短さ</tspan></text></g></g><g
       id="g50"><g
         id="g52"
         clip-path="url(#clipPath56)"><text
           transform="matrix(1,0,0,-1,173.33,626.22)"
           style="font-variant:normal;font-size:10.5px;font-family:UDDigiKyokashoNK;-inkscape-font-specification:UDDigiKyokashoNK-R;writing-mode:lr-tb;fill:#000000;fill-opacity:1;fill-rule:nonzero;stroke:none"
           id="text60"><tspan
             x="0 9.9855003 15.477 23.982 32.717999 42.462002 52.962002 63.703499"
             y="0"
             id="tspan58">は、まさに新幹線</tspan></text></g></g><g
       id="g62"><g
         id="g64"
         clip-path="url(#clipPath68)"><text
           transform="matrix(1,0,0,-1,54.025,608.2)"
           style="font-variant:normal;font-size:10.5px;font-family:UDDigiKyokashoNK;-inkscape-font-specification:UDDigiKyokashoNK-R;writing-mode:lr-tb;fill:#000000;fill-opacity:1;fill-rule:nonzero;stroke:none"
           id="text72"><tspan
             x="0 10.2375 20.979 31.720501 40.215 50.2005 60.942001 71.683502 82.425003 91.917 102.6585 111.153 120.393 130.37849 139.3665 149.35201 158.34 166.33051 171.82201 182.56351"
             y="0"
             id="tspan70">の安定した輸送力を表しているだろう。日本</tspan></text></g></g><g
       id="g74"><g
         id="g76"
         clip-path="url(#clipPath80)"><text
           transform="matrix(1,0,0,-1,54.025,590.2)"
           style="font-variant:normal;font-size:10.5px;font-family:UDDigiKyokashoNK;-inkscape-font-specification:UDDigiKyokashoNK-R;writing-mode:lr-tb;fill:#000000;fill-opacity:1;fill-rule:nonzero;stroke:none"
           id="text84"><tspan
             x="0 10.5 18.500999 26.7435 35.773499 41.233501 51.733501 59.723999 69.226501 79.726501 87.464996 92.714996 103.215 113.9565 124.4565 134.4315 144.9315 155.694 166.194 176.694 184.69501"
             y="0"
             id="tspan82">人として、誇りに思う。世界初の高速鉄道とし</tspan></text></g></g><g
       id="g86"><g
         id="g88"
         clip-path="url(#clipPath92)"><text
           transform="matrix(1,0,0,-1,54.025,572.2)"
           style="font-variant:normal;font-size:10.5px;font-family:UDDigiKyokashoNK;-inkscape-font-specification:UDDigiKyokashoNK-R;writing-mode:lr-tb;fill:#000000;fill-opacity:1;fill-rule:nonzero;stroke:none"
           id="text96"><tspan
             x="0 9.2399998 19.981501 30.723 39.217499 49.202999 59.702999 70.444504 81.185997 86.677498 94.416 104.6535 114.1455 124.6455 135.38699 146.12849 154.623 163.86301 172.599 183.3405"
             y="0"
             id="tspan94">て誕生した新幹線。リニアが登場しても変わ</tspan></text></g></g><g
       id="g98"><g
         id="g100"
         clip-path="url(#clipPath104)"><text
           transform="matrix(1,0,0,-1,54.025,554.2)"
           style="font-variant:normal;font-size:10.5px;font-family:UDDigiKyokashoNK;-inkscape-font-specification:UDDigiKyokashoNK-R;writing-mode:lr-tb;fill:#000000;fill-opacity:1;fill-rule:nonzero;stroke:none"
           id="text108"><tspan
             x="0 8.7360001 19.2255 27.9615 36.949501 46.693501 55.933498 66.675003 77.668503 86.163002 96.904503 107.898 118.6395 124.383 133.371 142.10699 151.599 162.3405 173.334 184.0755"
             y="0"
             id="tspan106">らずさらなる安全と正確性、そして快適性を</tspan></text></g></g><g
       id="g110"><g
         id="g112"
         clip-path="url(#clipPath116)"><text
           transform="matrix(1,0,0,-1,54.025,536.17)"
           style="font-variant:normal;font-size:10.5px;font-family:UDDigiKyokashoNK;-inkscape-font-specification:UDDigiKyokashoNK-R;writing-mode:lr-tb;fill:#000000;fill-opacity:1;fill-rule:nonzero;stroke:none"
           id="text120"><tspan
             x="0 10.5 21 29.2425 38.272499 47.995499 56.237999 66.002998"
             y="0"
             id="tspan118">追求してほしい。</tspan></text></g></g><g
       id="g122"><g
         id="g124"
         clip-path="url(#clipPath128)" /></g><g
       id="g130"><g
         id="g132"
         clip-path="url(#clipPath136)" /></g><g
       id="g138"><g
         id="g140"
         clip-path="url(#clipPath144)"><text
           transform="matrix(1,0,0,-1,54.025,500.17)"
           style="font-variant:normal;font-size:10.5px;font-family:UDDigiKyokashoNK;-inkscape-font-specification:UDDigiKyokashoNK-R;writing-mode:lr-tb;fill:#000000;fill-opacity:1;fill-rule:nonzero;stroke:none"
           id="text148"><tspan
             x="0 9.7440004 20.243999 30.2295 39.994499 49.476002 59.220001 67.724998 77.458504 85.2285 95.7285 103.7085 111.447 120.6975 130.4415 140.2065 148.69051 156.933 166.677"
             y="0"
             id="tspan146">お読みいただきありがとうございました！</tspan></text></g></g><g
       id="g150"><g
         id="g152"
         clip-path="url(#clipPath156)" /></g><g
       id="g158"><g
         id="g160"
         clip-path="url(#clipPath164)" /></g><g
       id="g166"><g
         id="g168"
         clip-path="url(#clipPath172)" /></g><g
       id="g174"><g
         id="g176"
         clip-path="url(#clipPath180)"><text
           transform="matrix(1,0,0,-1,54.025,446.15)"
           style="font-variant:normal;font-size:10.5px;font-family:UDDigiKyokashoNK;-inkscape-font-specification:UDDigiKyokashoNK-B;writing-mode:lr-tb;fill:#000000;fill-opacity:1;fill-rule:nonzero;stroke:none"
           id="text184"><tspan
             x="0 10.5 21 31.5"
             y="0"
             id="tspan182">参考文献</tspan></text></g></g><g
       id="g186"><g
         id="g188"
         clip-path="url(#clipPath192)" /></g><g
       id="g194"><g
         id="g196"
         clip-path="url(#clipPath200)"><text
           transform="matrix(1,0,0,-1,54.025,428.15)"
           style="font-variant:normal;font-size:10.5px;font-family:UDDigiKyokashoNK;-inkscape-font-specification:UDDigiKyokashoNK-R;writing-mode:lr-tb;fill:#000000;fill-opacity:1;fill-rule:nonzero;stroke:none"
           id="text204"><tspan
             x="0 9.7440004 12.7365 18.48 21.4725 27.9615 33.957001 40.445999 43.438499 49.927502"
             y="0"
             id="tspan202">Wikipedia </tspan></text></g></g><g
       id="g206"><g
         id="g208"
         clip-path="url(#clipPath212)" /></g><g
       id="g214"><g
         id="g216"
         clip-path="url(#clipPath220)"><text
           transform="matrix(1,0,0,-1,54.025,410.15)"
           style="font-variant:normal;font-size:10.5px;font-family:UDDigiKyokashoNK;-inkscape-font-specification:UDDigiKyokashoNK-R;writing-mode:lr-tb;fill:#000000;fill-opacity:1;fill-rule:nonzero;stroke:none"
           id="text224"><tspan
             x="0 6.237 10.752 15.267 21.724501 27.2265 30.471001 35.721001 40.971001 44.457001 50.945999 54.431999 62.422501 65.1735 70.917 73.9095 80.398499 86.393997 92.883003 95.875504 102.123 105.609 111.6045 115.857 122.3565 127.6065 135.597 138.58949 144.33299 147.3255 152.5755 162.3195 169.071 176.064 185.5665"
             y="0"
             id="tspan222">https://ja.wikipedia.org/wiki/%E3%8</tspan></text></g></g><g
       id="g226"><g
         id="g228"
         clip-path="url(#clipPath232)"><text
           transform="matrix(1,0,0,-1,54.025,392.13)"
           style="font-variant:normal;font-size:10.5px;font-family:UDDigiKyokashoNK;-inkscape-font-specification:UDDigiKyokashoNK-R;writing-mode:lr-tb;fill:#000000;fill-opacity:1;fill-rule:nonzero;stroke:none"
           id="text236"><tspan
             x="0"
             y="0"
             id="tspan234">3</tspan></text></g></g><g
       id="g238"><g
         id="g240"
         clip-path="url(#clipPath244)" /></g><g
       id="g246"><g
         id="g248"
         clip-path="url(#clipPath252)"><text
           transform="matrix(1,0,0,-1,54.025,374.13)"
           style="font-variant:normal;font-size:10.5px;font-family:UDDigiKyokashoNK;-inkscape-font-specification:UDDigiKyokashoNK-R;writing-mode:lr-tb;fill:#000000;fill-opacity:1;fill-rule:nonzero;stroke:none"
           id="text256"><tspan
             x="0 7.2344999 13.23 19.7295 26.229 32.466 36.980999 43.2075 47.459999"
             y="0"
             id="tspan254">Toggeter </tspan></text></g></g><g
       id="g258"><g
         id="g260"
         clip-path="url(#clipPath264)" /></g><g
       id="g266"><g
         id="g268"
         clip-path="url(#clipPath272)"><text
           transform="matrix(1,0,0,-1,54.025,356.13)"
           style="font-variant:normal;font-size:10.5px;font-family:UDDigiKyokashoNK;-inkscape-font-specification:UDDigiKyokashoNK-R;writing-mode:lr-tb;fill:#000000;fill-opacity:1;fill-rule:nonzero;stroke:none"
           id="text276"><tspan
             x="0 6.237 10.752 15.267 21.724501 27.2265 30.471001 35.721001 40.971001 45.486 51.471001 57.970501 64.207497 68.722504 73.237503 79.432503 83.706001 87.192001 92.935501 98.931 107.4255 112.6755 115.668 118.6605 123.9105 130.9035 137.8965 144.8895 151.88251 158.634 165.627 172.62"
             y="0"
             id="tspan274">https://togetter.com/li/1425990 </tspan></text></g></g><g
       id="g278"><g
         id="g280"
         clip-path="url(#clipPath284)" /></g><g
       id="g286"><g
         id="g288"
         clip-path="url(#clipPath292)"><text
           transform="matrix(1,0,0,-1,54.025,338.13)"
           style="font-variant:normal;font-size:10.5px;font-family:UDDigiKyokashoNK;-inkscape-font-specification:UDDigiKyokashoNK-R;writing-mode:lr-tb;fill:#000000;fill-opacity:1;fill-rule:nonzero;stroke:none"
           id="text296"><tspan
             x="0 10.5 21 31.5 42 51.029999 59.744999 68.25 76.230003"
             y="0"
             id="tspan294">東洋経済オンライン</tspan></text></g></g><g
       id="g298"><g
         id="g300"
         clip-path="url(#clipPath304)" /></g><g
       id="g306"><g
         id="g308"
         clip-path="url(#clipPath312)" /></g><g
       id="g314"><g
         id="g316"
         clip-path="url(#clipPath320)"><text
           transform="matrix(1,0,0,-1,54.025,320.1)"
           style="font-variant:normal;font-size:10.5px;font-family:UDDigiKyokashoNK;-inkscape-font-specification:UDDigiKyokashoNK-R;writing-mode:lr-tb;fill:#000000;fill-opacity:1;fill-rule:nonzero;stroke:none"
           id="text324"><tspan
             x="0 6.237 10.752 15.267 21.724501 27.2265 30.471001 35.721001 40.971001 45.486 51.471001 57.245998 63.220501 68.963997 75.200996 78.193497 83.443497 89.932503 92.925003 96.411003 102.648 108.885 113.4"
             y="0"
             id="tspan322">https://toyokeizai.net/</tspan></text></g></g><g
       id="g326"><g
         id="g328"
         clip-path="url(#clipPath332)" /></g><g
       id="g334"><g
         id="g336"
         clip-path="url(#clipPath340)" /></g></g></svg>
