<?xml version="1.0" encoding="UTF-8" standalone="no"?>
<svg
   xmlns:dc="http://purl.org/dc/elements/1.1/"
   xmlns:cc="http://creativecommons.org/ns#"
   xmlns:rdf="http://www.w3.org/1999/02/22-rdf-syntax-ns#"
   xmlns:svg="http://www.w3.org/2000/svg"
   xmlns="http://www.w3.org/2000/svg"
   version="1.1"
   id="svg2"
   xml:space="preserve"
   width="688"
   height="971.33331"
   viewBox="0 0 688 971.33331"><metadata
     id="metadata8"><rdf:RDF><cc:Work
         rdf:about=""><dc:format>image/svg+xml</dc:format><dc:type
           rdf:resource="http://purl.org/dc/dcmitype/StillImage" /></cc:Work></rdf:RDF></metadata><defs
     id="defs6"><clipPath
       clipPathUnits="userSpaceOnUse"
       id="clipPath20"><path
         d="M 7.689e-6,0 H 516.00001 V 728.5 H 7.689e-6 Z"
         id="path18" /></clipPath><clipPath
       clipPathUnits="userSpaceOnUse"
       id="clipPath32"><path
         d="M 7.689e-6,0 H 516.00001 V 728.5 H 7.689e-6 Z"
         id="path30" /></clipPath><clipPath
       clipPathUnits="userSpaceOnUse"
       id="clipPath40"><path
         d="M 7.689e-6,0 H 516.00001 V 728.5 H 7.689e-6 Z"
         id="path38" /></clipPath><clipPath
       clipPathUnits="userSpaceOnUse"
       id="clipPath52"><path
         d="M 7.689e-6,0 H 516.00001 V 728.5 H 7.689e-6 Z"
         id="path50" /></clipPath><clipPath
       clipPathUnits="userSpaceOnUse"
       id="clipPath64"><path
         d="M 7.689e-6,0 H 516.00001 V 728.5 H 7.689e-6 Z"
         id="path62" /></clipPath><clipPath
       clipPathUnits="userSpaceOnUse"
       id="clipPath76"><path
         d="M 7.689e-6,0 H 516.00001 V 728.5 H 7.689e-6 Z"
         id="path74" /></clipPath><clipPath
       clipPathUnits="userSpaceOnUse"
       id="clipPath84"><path
         d="M 7.689e-6,0 H 516.00001 V 728.5 H 7.689e-6 Z"
         id="path82" /></clipPath><clipPath
       clipPathUnits="userSpaceOnUse"
       id="clipPath96"><path
         d="M 7.689e-6,0 H 516.00001 V 728.5 H 7.689e-6 Z"
         id="path94" /></clipPath><clipPath
       clipPathUnits="userSpaceOnUse"
       id="clipPath108"><path
         d="M 7.689e-6,0 H 516.00001 V 728.5 H 7.689e-6 Z"
         id="path106" /></clipPath><clipPath
       clipPathUnits="userSpaceOnUse"
       id="clipPath120"><path
         d="M 7.689e-6,0 H 516.00001 V 728.5 H 7.689e-6 Z"
         id="path118" /></clipPath><clipPath
       clipPathUnits="userSpaceOnUse"
       id="clipPath132"><path
         d="M 7.689e-6,0 H 516.00001 V 728.5 H 7.689e-6 Z"
         id="path130" /></clipPath><clipPath
       clipPathUnits="userSpaceOnUse"
       id="clipPath144"><path
         d="M 7.689e-6,0 H 516.00001 V 728.5 H 7.689e-6 Z"
         id="path142" /></clipPath><clipPath
       clipPathUnits="userSpaceOnUse"
       id="clipPath156"><path
         d="M 7.689e-6,0 H 516.00001 V 728.5 H 7.689e-6 Z"
         id="path154" /></clipPath><clipPath
       clipPathUnits="userSpaceOnUse"
       id="clipPath164"><path
         d="M 7.689e-6,0 H 516.00001 V 728.5 H 7.689e-6 Z"
         id="path162" /></clipPath><clipPath
       clipPathUnits="userSpaceOnUse"
       id="clipPath176"><path
         d="M 7.689e-6,0 H 516.00001 V 728.5 H 7.689e-6 Z"
         id="path174" /></clipPath><clipPath
       clipPathUnits="userSpaceOnUse"
       id="clipPath184"><path
         d="M 7.689e-6,0 H 516.00001 V 728.5 H 7.689e-6 Z"
         id="path182" /></clipPath><clipPath
       clipPathUnits="userSpaceOnUse"
       id="clipPath196"><path
         d="M 7.689e-6,0 H 516.00001 V 728.5 H 7.689e-6 Z"
         id="path194" /></clipPath><clipPath
       clipPathUnits="userSpaceOnUse"
       id="clipPath208"><path
         d="M 7.689e-6,0 H 516.00001 V 728.5 H 7.689e-6 Z"
         id="path206" /></clipPath><clipPath
       clipPathUnits="userSpaceOnUse"
       id="clipPath216"><path
         d="M 7.689e-6,0 H 516.00001 V 728.5 H 7.689e-6 Z"
         id="path214" /></clipPath><clipPath
       clipPathUnits="userSpaceOnUse"
       id="clipPath228"><path
         d="M 7.689e-6,0 H 516.00001 V 728.5 H 7.689e-6 Z"
         id="path226" /></clipPath><clipPath
       clipPathUnits="userSpaceOnUse"
       id="clipPath236"><path
         d="M 7.689e-6,0 H 516.00001 V 728.5 H 7.689e-6 Z"
         id="path234" /></clipPath><clipPath
       clipPathUnits="userSpaceOnUse"
       id="clipPath248"><path
         d="M 7.689e-6,0 H 516.00001 V 728.5 H 7.689e-6 Z"
         id="path246" /></clipPath><clipPath
       clipPathUnits="userSpaceOnUse"
       id="clipPath260"><path
         d="M 7.689e-6,0 H 516.00001 V 728.5 H 7.689e-6 Z"
         id="path258" /></clipPath><clipPath
       clipPathUnits="userSpaceOnUse"
       id="clipPath268"><path
         d="M 7.689e-6,0 H 516.00001 V 728.5 H 7.689e-6 Z"
         id="path266" /></clipPath><clipPath
       clipPathUnits="userSpaceOnUse"
       id="clipPath280"><path
         d="M 7.689e-6,0 H 516.00001 V 728.5 H 7.689e-6 Z"
         id="path278" /></clipPath><clipPath
       clipPathUnits="userSpaceOnUse"
       id="clipPath292"><path
         d="M 7.689e-6,0 H 516.00001 V 728.5 H 7.689e-6 Z"
         id="path290" /></clipPath><clipPath
       clipPathUnits="userSpaceOnUse"
       id="clipPath304"><path
         d="M 7.689e-6,0 H 516.00001 V 728.5 H 7.689e-6 Z"
         id="path302" /></clipPath><clipPath
       clipPathUnits="userSpaceOnUse"
       id="clipPath312"><path
         d="M 7.689e-6,0 H 516.00001 V 728.5 H 7.689e-6 Z"
         id="path310" /></clipPath><clipPath
       clipPathUnits="userSpaceOnUse"
       id="clipPath324"><path
         d="M 7.689e-6,0 H 516.00001 V 728.5 H 7.689e-6 Z"
         id="path322" /></clipPath><clipPath
       clipPathUnits="userSpaceOnUse"
       id="clipPath332"><path
         d="M 7.689e-6,0 H 516.00001 V 728.5 H 7.689e-6 Z"
         id="path330" /></clipPath><clipPath
       clipPathUnits="userSpaceOnUse"
       id="clipPath344"><path
         d="M 7.689e-6,0 H 516.00001 V 728.5 H 7.689e-6 Z"
         id="path342" /></clipPath><clipPath
       clipPathUnits="userSpaceOnUse"
       id="clipPath356"><path
         d="M 7.689e-6,0 H 516.00001 V 728.5 H 7.689e-6 Z"
         id="path354" /></clipPath><clipPath
       clipPathUnits="userSpaceOnUse"
       id="clipPath364"><path
         d="M 7.689e-6,0 H 516.00001 V 728.5 H 7.689e-6 Z"
         id="path362" /></clipPath><clipPath
       clipPathUnits="userSpaceOnUse"
       id="clipPath376"><path
         d="M 7.689e-6,0 H 516.00001 V 728.5 H 7.689e-6 Z"
         id="path374" /></clipPath><clipPath
       clipPathUnits="userSpaceOnUse"
       id="clipPath388"><path
         d="M 7.689e-6,0 H 516.00001 V 728.5 H 7.689e-6 Z"
         id="path386" /></clipPath><clipPath
       clipPathUnits="userSpaceOnUse"
       id="clipPath396"><path
         d="M 7.689e-6,0 H 516.00001 V 728.5 H 7.689e-6 Z"
         id="path394" /></clipPath><clipPath
       clipPathUnits="userSpaceOnUse"
       id="clipPath408"><path
         d="M 7.689e-6,0 H 516.00001 V 728.5 H 7.689e-6 Z"
         id="path406" /></clipPath><clipPath
       clipPathUnits="userSpaceOnUse"
       id="clipPath420"><path
         d="M 7.689e-6,0 H 516.00001 V 728.5 H 7.689e-6 Z"
         id="path418" /></clipPath><clipPath
       clipPathUnits="userSpaceOnUse"
       id="clipPath428"><path
         d="M 7.689e-6,0 H 516.00001 V 728.5 H 7.689e-6 Z"
         id="path426" /></clipPath><clipPath
       clipPathUnits="userSpaceOnUse"
       id="clipPath440"><path
         d="M 7.689e-6,0 H 516.00001 V 728.5 H 7.689e-6 Z"
         id="path438" /></clipPath><clipPath
       clipPathUnits="userSpaceOnUse"
       id="clipPath448"><path
         d="M 7.689e-6,0 H 516.00001 V 728.5 H 7.689e-6 Z"
         id="path446" /></clipPath><clipPath
       clipPathUnits="userSpaceOnUse"
       id="clipPath460"><path
         d="M 7.689e-6,0 H 516.00001 V 728.5 H 7.689e-6 Z"
         id="path458" /></clipPath><clipPath
       clipPathUnits="userSpaceOnUse"
       id="clipPath472"><path
         d="M 7.689e-6,0 H 516.00001 V 728.5 H 7.689e-6 Z"
         id="path470" /></clipPath><clipPath
       clipPathUnits="userSpaceOnUse"
       id="clipPath480"><path
         d="M 7.689e-6,0 H 516.00001 V 728.5 H 7.689e-6 Z"
         id="path478" /></clipPath><clipPath
       clipPathUnits="userSpaceOnUse"
       id="clipPath492"><path
         d="M 7.689e-6,0 H 516.00001 V 728.5 H 7.689e-6 Z"
         id="path490" /></clipPath><clipPath
       clipPathUnits="userSpaceOnUse"
       id="clipPath500"><path
         d="M 7.689e-6,0 H 516.00001 V 728.5 H 7.689e-6 Z"
         id="path498" /></clipPath><clipPath
       clipPathUnits="userSpaceOnUse"
       id="clipPath512"><path
         d="M 7.689e-6,0 H 516.00001 V 728.5 H 7.689e-6 Z"
         id="path510" /></clipPath><clipPath
       clipPathUnits="userSpaceOnUse"
       id="clipPath524"><path
         d="M 7.689e-6,0 H 516.00001 V 728.5 H 7.689e-6 Z"
         id="path522" /></clipPath><clipPath
       clipPathUnits="userSpaceOnUse"
       id="clipPath532"><path
         d="M 7.689e-6,0 H 516.00001 V 728.5 H 7.689e-6 Z"
         id="path530" /></clipPath><clipPath
       clipPathUnits="userSpaceOnUse"
       id="clipPath544"><path
         d="M 7.689e-6,0 H 516.00001 V 728.5 H 7.689e-6 Z"
         id="path542" /></clipPath><clipPath
       clipPathUnits="userSpaceOnUse"
       id="clipPath556"><path
         d="M 7.689e-6,0 H 516.00001 V 728.5 H 7.689e-6 Z"
         id="path554" /></clipPath><clipPath
       clipPathUnits="userSpaceOnUse"
       id="clipPath568"><path
         d="M 7.689e-6,0 H 516.00001 V 728.5 H 7.689e-6 Z"
         id="path566" /></clipPath><clipPath
       clipPathUnits="userSpaceOnUse"
       id="clipPath576"><path
         d="M 7.689e-6,0 H 516.00001 V 728.5 H 7.689e-6 Z"
         id="path574" /></clipPath><clipPath
       clipPathUnits="userSpaceOnUse"
       id="clipPath588"><path
         d="M 7.689e-6,0 H 516.00001 V 728.5 H 7.689e-6 Z"
         id="path586" /></clipPath><clipPath
       clipPathUnits="userSpaceOnUse"
       id="clipPath600"><path
         d="M 7.689e-6,0 H 516.00001 V 728.5 H 7.689e-6 Z"
         id="path598" /></clipPath><clipPath
       clipPathUnits="userSpaceOnUse"
       id="clipPath608"><path
         d="M 7.689e-6,0 H 516.00001 V 728.5 H 7.689e-6 Z"
         id="path606" /></clipPath><clipPath
       clipPathUnits="userSpaceOnUse"
       id="clipPath620"><path
         d="M 7.689e-6,0 H 516.00001 V 728.5 H 7.689e-6 Z"
         id="path618" /></clipPath><clipPath
       clipPathUnits="userSpaceOnUse"
       id="clipPath628"><path
         d="M 0,0 H 516 V 728.5 H 0 Z"
         id="path626" /></clipPath><clipPath
       clipPathUnits="userSpaceOnUse"
       id="clipPath638"><path
         d="M 7.689e-6,0 H 516.00001 V 728.5 H 7.689e-6 Z"
         id="path636" /></clipPath><clipPath
       clipPathUnits="userSpaceOnUse"
       id="clipPath646"><path
         d="M 7.689e-6,0 H 516.00001 V 728.5 H 7.689e-6 Z"
         id="path644" /></clipPath></defs><g
     id="g10"
     transform="matrix(1.3333333,0,0,-1.3333333,0,971.33333)"><g
       id="g12" /><g
       id="g14"><g
         id="g16"
         clip-path="url(#clipPath20)"><text
           transform="matrix(1,0,0,-1,54.025,634.72)"
           style="font-variant:normal;font-size:12px;font-family:UDDigiKyokashoNK;-inkscape-font-specification:UDDigiKyokashoNK-B;writing-mode:lr-tb;fill:#000000;fill-opacity:1;fill-rule:nonzero;stroke:none"
           id="text24"><tspan
             x="0 10.992 22.992001 34.728001 44.231998"
             y="0"
             id="tspan22">〇終わりに</tspan></text></g></g><g
       id="g26"><g
         id="g28"
         clip-path="url(#clipPath32)" /></g><g
       id="g34"><g
         id="g36"
         clip-path="url(#clipPath40)"><text
           transform="matrix(1,0,0,-1,54.025,608.2)"
           style="font-variant:normal;font-size:10.5px;font-family:UDDigiKyokashoNK;-inkscape-font-specification:UDDigiKyokashoNK-R;writing-mode:lr-tb;fill:#000000;fill-opacity:1;fill-rule:nonzero;stroke:none"
           id="text44"><tspan
             x="0 10.7415 21.483 30.219 40.7085 51.702 60.942001 71.683502"
             y="0"
             id="tspan42">最後ま見下っ</tspan></text></g></g><g
       id="g46"><g
         id="g48"
         clip-path="url(#clipPath52)"><text
           transform="matrix(1,0,0,-1,134.08,608.2)"
           style="font-variant:normal;font-size:10.5px;font-family:UDDigiKyokashoNK;-inkscape-font-specification:UDDigiKyokashoNK-R;writing-mode:lr-tb;fill:#000000;fill-opacity:1;fill-rule:nonzero;stroke:none"
           id="text56"><tspan
             x="0 9.9855003 20.726999 29.715 39.7005 47.691002 58.432499 66.675003 74.917503 84.4095 94.394997 104.3805"
             y="0"
             id="tspan54">た方々ありがうございま</tspan></text></g></g><g
       id="g58"><g
         id="g60"
         clip-path="url(#clipPath64)"><text
           transform="matrix(1,0,0,-1,54.025,590.2)"
           style="font-variant:normal;font-size:10.5px;font-family:UDDigiKyokashoNK;-inkscape-font-specification:UDDigiKyokashoNK-R;writing-mode:lr-tb;fill:#000000;fill-opacity:1;fill-rule:nonzero;stroke:none"
           id="text68"><tspan
             x="0 9.2504997"
             y="0"
             id="tspan66">す。</tspan></text></g></g><g
       id="g70"><g
         id="g72"
         clip-path="url(#clipPath76)" /></g><g
       id="g78"><g
         id="g80"
         clip-path="url(#clipPath84)"><text
           transform="matrix(1,0,0,-1,64.525,572.2)"
           style="font-variant:normal;font-size:10.5px;font-family:UDDigiKyokashoNK;-inkscape-font-specification:UDDigiKyokashoNK-R;writing-mode:lr-tb;fill:#000000;fill-opacity:1;fill-rule:nonzero;stroke:none"
           id="text88"><tspan
             x="0 10.9935 21.987 32.980499 43.470001 51.9645 61.204498 71.945999 80.933998 91.675499 99.162003 110.1555 120.897 131.8905 141.87601 149.3625 155.106 164.34599 174.83549"
             y="0"
             id="tspan86">合宿終わっから書く時間がなく、それ</tspan></text></g></g><g
       id="g90"><g
         id="g92"
         clip-path="url(#clipPath96)"><text
           transform="matrix(1,0,0,-1,54.025,554.2)"
           style="font-variant:normal;font-size:10.5px;font-family:UDDigiKyokashoNK;-inkscape-font-specification:UDDigiKyokashoNK-R;writing-mode:lr-tb;fill:#000000;fill-opacity:1;fill-rule:nonzero;stroke:none"
           id="text100"><tspan
             x="0 10.7415 21.483 32.476501 43.217999 53.7075 64.448997 75.190498 86.183998 96.421501 107.415 116.403 127.1445 137.382 146.62199 156.6075 166.845 177.0825 187.57201"
             y="0"
             id="tspan98">自由投稿の旅行記の方も書いいたの、</tspan></text></g></g><g
       id="g102"><g
         id="g104"
         clip-path="url(#clipPath108)"><text
           transform="matrix(1,0,0,-1,54.025,536.17)"
           style="font-variant:normal;font-size:10.5px;font-family:UDDigiKyokashoNK;-inkscape-font-specification:UDDigiKyokashoNK-R;writing-mode:lr-tb;fill:#000000;fill-opacity:1;fill-rule:nonzero;stroke:none"
           id="text112"><tspan
             x="0 10.7415 20.726999 30.975 41.212502 51.712502 62.453999 70.696503 80.440498 88.210503 93.681 104.181 113.925 124.425 135.1665 143.9025 154.4025 165.144 174.888 182.87849"
             y="0"
             id="tspan110">急いの執筆なり、雑な部分も沢山あり申</tspan></text></g></g><g
       id="g114"><g
         id="g116"
         clip-path="url(#clipPath120)"><text
           transform="matrix(1,0,0,-1,54.025,518.17)"
           style="font-variant:normal;font-size:10.5px;font-family:UDDigiKyokashoNK;-inkscape-font-specification:UDDigiKyokashoNK-R;writing-mode:lr-tb;fill:#000000;fill-opacity:1;fill-rule:nonzero;stroke:none"
           id="text124"><tspan
             x="0 8.4945002 19.236 28.4865 38.472 48.4575 57.193501 67.431 76.933502 82.425003 92.925003 102.9105 108.402 116.907 124.8975 135.39751 143.892 154.6335 164.3775 174.6255 184.61099"
             y="0"
             id="tspan122">し訳ございません。次は、もう少し読んいる</tspan></text></g></g><g
       id="g126"><g
         id="g128"
         clip-path="url(#clipPath132)"><text
           transform="matrix(1,0,0,-1,54.025,500.17)"
           style="font-variant:normal;font-size:10.5px;font-family:UDDigiKyokashoNK;-inkscape-font-specification:UDDigiKyokashoNK-R;writing-mode:lr-tb;fill:#000000;fill-opacity:1;fill-rule:nonzero;stroke:none"
           id="text136"><tspan
             x="0 10.5 21 31.5 42.241501 52.0065 60.228001 70.727997 78.970497 87.464996 97.460999 106.449 115.185 122.9235 132.42599 142.92599 150.16051 158.8965 166.63499 171.88499 182.38499"
             y="0"
             id="tspan134">人が面白い感じられるように書くよう、頑張</tspan></text></g></g><g
       id="g138"><g
         id="g140"
         clip-path="url(#clipPath144)"><text
           transform="matrix(1,0,0,-1,54.025,482.17)"
           style="font-variant:normal;font-size:10.5px;font-family:UDDigiKyokashoNK;-inkscape-font-specification:UDDigiKyokashoNK-R;writing-mode:lr-tb;fill:#000000;fill-opacity:1;fill-rule:nonzero;stroke:none"
           id="text148"><tspan
             x="0 7.77 16.254 25.493999"
             y="0"
             id="tspan146">ります。</tspan></text></g></g><g
       id="g150"><g
         id="g152"
         clip-path="url(#clipPath156)" /></g><g
       id="g158"><g
         id="g160"
         clip-path="url(#clipPath164)"><text
           transform="matrix(1,0,0,-1,54.025,464.15)"
           style="font-variant:normal;font-size:10.5px;font-family:UDDigiKyokashoNK;-inkscape-font-specification:UDDigiKyokashoNK-R;writing-mode:lr-tb;fill:#000000;fill-opacity:1;fill-rule:nonzero;stroke:none"
           id="text168"><tspan
             x="0 8.2530003 18.249001 28.749001 33.999001 44.499001 54.999001 65.499001 75.999001 86.499001 96.473999 106.974 117.474 127.029 136.5 144.27 152.754 160.99651 170.74049"
             y="0"
             id="tspan166">これが、中学生最後の部誌になりました。</tspan></text></g></g><g
       id="g170"><g
         id="g172"
         clip-path="url(#clipPath176)" /></g><g
       id="g178"><g
         id="g180"
         clip-path="url(#clipPath184)"><text
           transform="matrix(1,0,0,-1,54.025,446.15)"
           style="font-variant:normal;font-size:10.5px;font-family:UDDigiKyokashoNK;-inkscape-font-specification:UDDigiKyokashoNK-R;writing-mode:lr-tb;fill:#000000;fill-opacity:1;fill-rule:nonzero;stroke:none"
           id="text188"><tspan
             x="0 10.7415 20.4855 25.976999 36.718498 47.218498 57.959999 67.934998 77.195999 86.940002 95.928001 104.664 112.644 119.658 129.90601 139.89149 150.633 160.39799 168.87151 177.3765 185.871"
             y="0"
             id="tspan186">次は、高校生のムーンライトお会いしましょ</tspan></text></g></g><g
       id="g190"><g
         id="g192"
         clip-path="url(#clipPath196)"><text
           transform="matrix(1,0,0,-1,54.025,428.15)"
           style="font-variant:normal;font-size:10.5px;font-family:UDDigiKyokashoNK;-inkscape-font-specification:UDDigiKyokashoNK-R;writing-mode:lr-tb;fill:#000000;fill-opacity:1;fill-rule:nonzero;stroke:none"
           id="text200"><tspan
             x="0 7.7385001 12.7365 22.480499 30.2505 40.7505 48.730499 56.469002 65.719498 75.463501 85.2285 93.712502 101.955 111.699"
             y="0"
             id="tspan198">う！ありがうございました。</tspan></text></g></g><g
       id="g202"><g
         id="g204"
         clip-path="url(#clipPath208)" /></g><g
       id="g210"><g
         id="g212"
         clip-path="url(#clipPath216)"><text
           transform="matrix(1,0,0,-1,54.025,400.63)"
           style="font-variant:normal;font-size:12px;font-family:UDDigiKyokashoNK;-inkscape-font-specification:UDDigiKyokashoNK-B;writing-mode:lr-tb;fill:#000000;fill-opacity:1;fill-rule:nonzero;stroke:none"
           id="text220"><tspan
             x="0 10.992 22.992001 34.992001 46.992001"
             y="0"
             id="tspan218">〇参考文献</tspan></text></g></g><g
       id="g222"><g
         id="g224"
         clip-path="url(#clipPath228)" /></g><g
       id="g230"><g
         id="g232"
         clip-path="url(#clipPath236)"><text
           transform="matrix(1,0,0,-1,54.025,364.63)"
           style="font-variant:normal;font-size:12px;font-family:UDDigiKyokashoNK;-inkscape-font-specification:UDDigiKyokashoNK-R;writing-mode:lr-tb;fill:#000000;fill-opacity:1;fill-rule:nonzero;stroke:none"
           id="text240"><tspan
             x="0 12 24 36 48 60"
             y="0"
             id="tspan238">神戸高速鉄道</tspan></text></g></g><g
       id="g242"><g
         id="g244"
         clip-path="url(#clipPath248)"><text
           transform="matrix(1,0,0,-1,129.08,364.63)"
           style="font-variant:normal;font-size:12px;font-family:UDDigiKyokashoNK;-inkscape-font-specification:UDDigiKyokashoNK-R;writing-mode:lr-tb;fill:#000000;fill-opacity:1;fill-rule:nonzero;stroke:none"
           id="text252"><tspan
             x="0 9"
             y="0"
             id="tspan250">HP</tspan></text></g></g><g
       id="g254"><g
         id="g256"
         clip-path="url(#clipPath260)" /></g><g
       id="g262"><g
         id="g264"
         clip-path="url(#clipPath268)"><text
           transform="matrix(1,0,0,-1,54.025,338.13)"
           style="font-variant:normal;font-size:10.5px;font-family:UDDigiKyokashoNK;-inkscape-font-specification:UDDigiKyokashoNK-R;writing-mode:lr-tb;fill:#000000;fill-opacity:1;fill-rule:nonzero;stroke:none"
           id="text272"><tspan
             x="0 6.237 10.752 15.267 21.724501 24.9795 30.2295 35.4795 43.470001 51.460499 59.209499 62.695499 68.439003 74.434502 80.9235"
             y="0"
             id="tspan270">http://www.kobe</tspan></text></g></g><g
       id="g274"><g
         id="g276"
         clip-path="url(#clipPath280)"><text
           transform="matrix(1,0,0,-1,141.33,338.13)"
           style="font-variant:normal;font-size:10.5px;font-family:UDDigiKyokashoNK;-inkscape-font-specification:UDDigiKyokashoNK-R;writing-mode:lr-tb;fill:#000000;fill-opacity:1;fill-rule:nonzero;stroke:none"
           id="text284"><tspan
             x="0"
             y="0"
             id="tspan282">-</tspan></text></g></g><g
       id="g286"><g
         id="g288"
         clip-path="url(#clipPath292)"><text
           transform="matrix(1,0,0,-1,147.08,338.13)"
           style="font-variant:normal;font-size:10.5px;font-family:UDDigiKyokashoNK;-inkscape-font-specification:UDDigiKyokashoNK-R;writing-mode:lr-tb;fill:#000000;fill-opacity:1;fill-rule:nonzero;stroke:none"
           id="text296"><tspan
             x="0 5.7435002 11.739 17.976 23.478001 29.473499 35.216999 41.453999 44.939999 48.195 54.683998"
             y="0"
             id="tspan294">kousoku.jp/</tspan></text></g></g><g
       id="g298"><g
         id="g300"
         clip-path="url(#clipPath304)" /></g><g
       id="g306"><g
         id="g308"
         clip-path="url(#clipPath312)"><text
           transform="matrix(1,0,0,-1,54.025,320.1)"
           style="font-variant:normal;font-size:10.5px;font-family:UDDigiKyokashoNK;-inkscape-font-specification:UDDigiKyokashoNK-R;writing-mode:lr-tb;fill:#000000;fill-opacity:1;fill-rule:nonzero;stroke:none"
           id="text316"><tspan
             x="0 10.5 21 31.5"
             y="0"
             id="tspan314">中日新聞</tspan></text></g></g><g
       id="g318"><g
         id="g320"
         clip-path="url(#clipPath324)" /></g><g
       id="g326"><g
         id="g328"
         clip-path="url(#clipPath332)"><text
           transform="matrix(1,0,0,-1,54.025,302.1)"
           style="font-variant:normal;font-size:10.5px;font-family:UDDigiKyokashoNK;-inkscape-font-specification:UDDigiKyokashoNK-R;writing-mode:lr-tb;fill:#000000;fill-opacity:1;fill-rule:nonzero;stroke:none"
           id="text336"><tspan
             x="0 10.5 21 31.5 42 52.741501 63.241501 73.741501 81.732002 90.762001 100.4745 110.2185 117.4635 127.9635 138.705 144.7005 155.442 161.4375 171.9375 182.4375"
             y="0"
             id="tspan334">第一種鉄道事業っなに？鉄道“超”基礎知</tspan></text></g></g><g
       id="g338"><g
         id="g340"
         clip-path="url(#clipPath344)"><text
           transform="matrix(1,0,0,-1,54.025,284.1)"
           style="font-variant:normal;font-size:10.5px;font-family:UDDigiKyokashoNK;-inkscape-font-specification:UDDigiKyokashoNK-R;writing-mode:lr-tb;fill:#000000;fill-opacity:1;fill-rule:nonzero;stroke:none"
           id="text348"><tspan
             x="0"
             y="0"
             id="tspan346">識</tspan></text></g></g><g
       id="g350"><g
         id="g352"
         clip-path="url(#clipPath356)" /></g><g
       id="g358"><g
         id="g360"
         clip-path="url(#clipPath364)"><text
           transform="matrix(1,0,0,-1,54.025,266.1)"
           style="font-variant:normal;font-size:10.5px;font-family:UDDigiKyokashoNK;-inkscape-font-specification:UDDigiKyokashoNK-R;writing-mode:lr-tb;fill:#000000;fill-opacity:1;fill-rule:nonzero;stroke:none"
           id="text368"><tspan
             x="0 6.237 10.752 15.267 21.724501 27.2265 30.471001 35.721001 40.971001 47.459999 50.452499 56.689499 62.191502 65.677498 71.420998 77.416496 83.653503 89.890503 92.883003 98.626503 104.622 107.6145 111.1005 116.844 122.8395 126.3255 129.58051 136.0695 141.3195 147.8085 150.80099 156.79649 163.29601 168.54601 171.5385 176.0535 182.0385"
             y="0"
             id="tspan366">https://plus.chunichi.co.jp/blog/ito/</tspan></text></g></g><g
       id="g370"><g
         id="g372"
         clip-path="url(#clipPath376)"><text
           transform="matrix(1,0,0,-1,54.025,248.08)"
           style="font-variant:normal;font-size:10.5px;font-family:UDDigiKyokashoNK;-inkscape-font-specification:UDDigiKyokashoNK-R;writing-mode:lr-tb;fill:#000000;fill-opacity:1;fill-rule:nonzero;stroke:none"
           id="text380"><tspan
             x="0 6.4889998 10.7415 15.2565 18.228001 23.9715 26.964001 33.201 38.451 45.202499 52.195499 59.188499 64.438499 71.431503 78.182999 85.176003 92.168999"
             y="0"
             id="tspan378">article/264/9484/</tspan></text></g></g><g
       id="g382"><g
         id="g384"
         clip-path="url(#clipPath388)" /></g><g
       id="g390"><g
         id="g392"
         clip-path="url(#clipPath396)"><text
           transform="matrix(1,0,0,-1,54.025,230.08)"
           style="font-variant:normal;font-size:10.5px;font-family:UDDigiKyokashoNK;-inkscape-font-specification:UDDigiKyokashoNK-R;writing-mode:lr-tb;fill:#000000;fill-opacity:1;fill-rule:nonzero;stroke:none"
           id="text400"><tspan
             x="0 10.5 21 31.5"
             y="0"
             id="tspan398">阪急電鉄</tspan></text></g></g><g
       id="g402"><g
         id="g404"
         clip-path="url(#clipPath408)"><text
           transform="matrix(1,0,0,-1,98.8,230.08)"
           style="font-variant:normal;font-size:10.5px;font-family:UDDigiKyokashoNK;-inkscape-font-specification:UDDigiKyokashoNK-R;writing-mode:lr-tb;fill:#000000;fill-opacity:1;fill-rule:nonzero;stroke:none"
           id="text412"><tspan
             x="0 7.7500501"
             y="0"
             id="tspan410">HP</tspan></text></g></g><g
       id="g414"><g
         id="g416"
         clip-path="url(#clipPath420)" /></g><g
       id="g422"><g
         id="g424"
         clip-path="url(#clipPath428)"><text
           transform="matrix(1,0,0,-1,54.025,212.08)"
           style="font-variant:normal;font-size:10.5px;font-family:UDDigiKyokashoNK;-inkscape-font-specification:UDDigiKyokashoNK-R;writing-mode:lr-tb;fill:#000000;fill-opacity:1;fill-rule:nonzero;stroke:none"
           id="text432"><tspan
             x="0 6.237 10.752 15.267 21.724501 27.2265 30.471001 35.721001 40.971001 48.961498 56.952 64.700996 68.186996 74.424004 80.913002 86.908501 92.652 98.427002 104.622 108.1395 113.883 119.8785 123.3645 126.6195 133.10851"
             y="0"
             id="tspan430">https://www.hankyu.co.jp/</tspan></text></g></g><g
       id="g434"><g
         id="g436"
         clip-path="url(#clipPath440)" /></g><g
       id="g442"><g
         id="g444"
         clip-path="url(#clipPath448)"><text
           transform="matrix(1,0,0,-1,54.025,194.08)"
           style="font-variant:normal;font-size:10.5px;font-family:UDDigiKyokashoNK;-inkscape-font-specification:UDDigiKyokashoNK-R;writing-mode:lr-tb;fill:#000000;fill-opacity:1;fill-rule:nonzero;stroke:none"
           id="text452"><tspan
             x="0 10.5 21 31.5"
             y="0"
             id="tspan450">阪神電鉄</tspan></text></g></g><g
       id="g454"><g
         id="g456"
         clip-path="url(#clipPath460)"><text
           transform="matrix(1,0,0,-1,98.8,194.08)"
           style="font-variant:normal;font-size:10.5px;font-family:UDDigiKyokashoNK;-inkscape-font-specification:UDDigiKyokashoNK-R;writing-mode:lr-tb;fill:#000000;fill-opacity:1;fill-rule:nonzero;stroke:none"
           id="text464"><tspan
             x="0 7.7500501"
             y="0"
             id="tspan462">HP</tspan></text></g></g><g
       id="g466"><g
         id="g468"
         clip-path="url(#clipPath472)" /></g><g
       id="g474"><g
         id="g476"
         clip-path="url(#clipPath480)"><text
           transform="matrix(1,0,0,-1,54.025,176.05)"
           style="font-variant:normal;font-size:10.5px;font-family:UDDigiKyokashoNK;-inkscape-font-specification:UDDigiKyokashoNK-R;writing-mode:lr-tb;fill:#000000;fill-opacity:1;fill-rule:nonzero;stroke:none"
           id="text484"><tspan
             x="0 6.237 10.752 15.267 21.724501 27.2265 30.471001 35.721001 40.971001 48.961498 56.952 64.700996 68.186996 74.424004 80.913002 87.150002 92.400002 98.637001 101.6295 107.8665 111.1215 116.865 122.8605 126.3465 129.8325 136.3215"
             y="0"
             id="tspan482">https://www.hanshin.co.jp/</tspan></text></g></g><g
       id="g486"><g
         id="g488"
         clip-path="url(#clipPath492)" /></g><g
       id="g494"><g
         id="g496"
         clip-path="url(#clipPath500)"><text
           transform="matrix(1,0,0,-1,54.025,158.05)"
           style="font-variant:normal;font-size:10.5px;font-family:UDDigiKyokashoNK;-inkscape-font-specification:UDDigiKyokashoNK-R;writing-mode:lr-tb;fill:#000000;fill-opacity:1;fill-rule:nonzero;stroke:none"
           id="text504"><tspan
             x="0 10.5 21 31.5"
             y="0"
             id="tspan502">山陽電鉄</tspan></text></g></g><g
       id="g506"><g
         id="g508"
         clip-path="url(#clipPath512)"><text
           transform="matrix(1,0,0,-1,98.8,158.05)"
           style="font-variant:normal;font-size:10.5px;font-family:UDDigiKyokashoNK;-inkscape-font-specification:UDDigiKyokashoNK-R;writing-mode:lr-tb;fill:#000000;fill-opacity:1;fill-rule:nonzero;stroke:none"
           id="text516"><tspan
             x="0 7.7500501"
             y="0"
             id="tspan514">HP</tspan></text></g></g><g
       id="g518"><g
         id="g520"
         clip-path="url(#clipPath524)" /></g><g
       id="g526"><g
         id="g528"
         clip-path="url(#clipPath532)"><text
           transform="matrix(1,0,0,-1,54.025,140.05)"
           style="font-variant:normal;font-size:10.5px;font-family:UDDigiKyokashoNK;-inkscape-font-specification:UDDigiKyokashoNK-R;writing-mode:lr-tb;fill:#000000;fill-opacity:1;fill-rule:nonzero;stroke:none"
           id="text536"><tspan
             x="0 6.237 10.752 15.267 21.724501 27.2265 30.471001 35.721001 40.971001 48.961498 56.952 64.700996 68.186996 73.689003 80.178001 86.415001 92.190002"
             y="0"
             id="tspan534">https://www.sanyo</tspan></text></g></g><g
       id="g538"><g
         id="g540"
         clip-path="url(#clipPath544)"><text
           transform="matrix(1,0,0,-1,152.33,140.05)"
           style="font-variant:normal;font-size:10.5px;font-family:UDDigiKyokashoNK;-inkscape-font-specification:UDDigiKyokashoNK-R;writing-mode:lr-tb;fill:#000000;fill-opacity:1;fill-rule:nonzero;stroke:none"
           id="text548"><tspan
             x="0"
             y="0"
             id="tspan546">-</tspan></text></g></g><g
       id="g550"><g
         id="g552"
         clip-path="url(#clipPath556)"><text
           transform="matrix(1,0,0,-1,54.025,122.05)"
           style="font-variant:normal;font-size:10.5px;font-family:UDDigiKyokashoNK;-inkscape-font-specification:UDDigiKyokashoNK-R;writing-mode:lr-tb;fill:#000000;fill-opacity:1;fill-rule:nonzero;stroke:none"
           id="text560"><tspan
             x="0 4.2525001 10.7415 13.734 16.7265 24.4755 30.9645 36.739498 40.183498 45.9585 51.953999 55.439999 58.925999 65.415001 70.665001 74.917503 81.165001 84.157501 87.150002 94.899002 101.388 107.163 112.413 115.374 121.3695 127.8585 134.0955 139.5975 143.0835 149.3205 153.83549 162.30901"
             y="0"
             id="tspan558">railway.co.jp/railway/index.html</tspan></text></g></g><g
       id="g562"><g
         id="g564"
         clip-path="url(#clipPath568)" /></g><g
       id="g570"><g
         id="g572"
         clip-path="url(#clipPath576)"><text
           transform="matrix(1,0,0,-1,54.025,104.03)"
           style="font-variant:normal;font-size:10.5px;font-family:UDDigiKyokashoNK;-inkscape-font-specification:UDDigiKyokashoNK-R;writing-mode:lr-tb;fill:#000000;fill-opacity:1;fill-rule:nonzero;stroke:none"
           id="text580"><tspan
             x="0 10.5 21 31.5"
             y="0"
             id="tspan578">神戸電鉄</tspan></text></g></g><g
       id="g582"><g
         id="g584"
         clip-path="url(#clipPath588)"><text
           transform="matrix(1,0,0,-1,98.8,104.03)"
           style="font-variant:normal;font-size:10.5px;font-family:UDDigiKyokashoNK;-inkscape-font-specification:UDDigiKyokashoNK-R;writing-mode:lr-tb;fill:#000000;fill-opacity:1;fill-rule:nonzero;stroke:none"
           id="text592"><tspan
             x="0 7.7500501"
             y="0"
             id="tspan590">HP</tspan></text></g></g><g
       id="g594"><g
         id="g596"
         clip-path="url(#clipPath600)" /></g><g
       id="g602"><g
         id="g604"
         clip-path="url(#clipPath608)"><text
           transform="matrix(1,0,0,-1,54.025,86.025)"
           style="font-variant:normal;font-size:10.5px;font-family:UDDigiKyokashoNK;-inkscape-font-specification:UDDigiKyokashoNK-R;writing-mode:lr-tb;fill:#0000ff;fill-opacity:1;fill-rule:nonzero;stroke:none"
           id="text612"><tspan
             x="0 6.237 10.752 15.267 21.724501 27.2265 30.471001 35.721001 40.971001 48.961498 56.952 64.700996 68.186996 73.689003 79.926003 82.918503 89.155502 93.670502 99.897003 104.412 109.6515 115.8885 119.3745 125.118 131.11349 134.5995 138.08549 144.57449"
             y="0"
             id="tspan610">https://www.shintetsu.co.jp/</tspan></text></g></g><g
       id="g614"><g
         id="g616"
         clip-path="url(#clipPath620)" /></g><g
       id="g622"><g
         id="g624"
         clip-path="url(#clipPath628)"><path
           d="m 54.025,83.025 h 149.83 v 0.5 H 54.025 Z"
           style="fill:#0000ff;fill-opacity:1;fill-rule:evenodd;stroke:none"
           id="path630" /></g></g><g
       id="g632"><g
         id="g634"
         clip-path="url(#clipPath638)" /></g><g
       id="g640"><g
         id="g642"
         clip-path="url(#clipPath646)" /></g></g></svg>
