<?xml version="1.0" encoding="UTF-8" standalone="no"?>
<svg
   xmlns:dc="http://purl.org/dc/elements/1.1/"
   xmlns:cc="http://creativecommons.org/ns#"
   xmlns:rdf="http://www.w3.org/1999/02/22-rdf-syntax-ns#"
   xmlns:svg="http://www.w3.org/2000/svg"
   xmlns="http://www.w3.org/2000/svg"
   version="1.1"
   id="svg2"
   xml:space="preserve"
   width="688"
   height="971.33331"
   viewBox="0 0 688 971.33331"><metadata
     id="metadata8"><rdf:RDF><cc:Work
         rdf:about=""><dc:format>image/svg+xml</dc:format><dc:type
           rdf:resource="http://purl.org/dc/dcmitype/StillImage" /></cc:Work></rdf:RDF></metadata><defs
     id="defs6"><clipPath
       clipPathUnits="userSpaceOnUse"
       id="clipPath20"><path
         d="M 7.689e-6,0 H 516.00001 V 728.5 H 7.689e-6 Z"
         id="path18" /></clipPath><clipPath
       clipPathUnits="userSpaceOnUse"
       id="clipPath32"><path
         d="M 7.689e-6,0 H 516.00001 V 728.5 H 7.689e-6 Z"
         id="path30" /></clipPath><clipPath
       clipPathUnits="userSpaceOnUse"
       id="clipPath44"><path
         d="M 7.689e-6,0 H 516.00001 V 728.5 H 7.689e-6 Z"
         id="path42" /></clipPath><clipPath
       clipPathUnits="userSpaceOnUse"
       id="clipPath56"><path
         d="M 7.689e-6,0 H 516.00001 V 728.5 H 7.689e-6 Z"
         id="path54" /></clipPath><clipPath
       clipPathUnits="userSpaceOnUse"
       id="clipPath68"><path
         d="M 7.689e-6,0 H 516.00001 V 728.5 H 7.689e-6 Z"
         id="path66" /></clipPath><clipPath
       clipPathUnits="userSpaceOnUse"
       id="clipPath80"><path
         d="M 7.689e-6,0 H 516.00001 V 728.5 H 7.689e-6 Z"
         id="path78" /></clipPath><clipPath
       clipPathUnits="userSpaceOnUse"
       id="clipPath88"><path
         d="M 7.689e-6,0 H 516.00001 V 728.5 H 7.689e-6 Z"
         id="path86" /></clipPath><clipPath
       clipPathUnits="userSpaceOnUse"
       id="clipPath96"><path
         d="M 7.689e-6,0 H 516.00001 V 728.5 H 7.689e-6 Z"
         id="path94" /></clipPath><clipPath
       clipPathUnits="userSpaceOnUse"
       id="clipPath108"><path
         d="M 7.689e-6,0 H 516.00001 V 728.5 H 7.689e-6 Z"
         id="path106" /></clipPath><clipPath
       clipPathUnits="userSpaceOnUse"
       id="clipPath120"><path
         d="M 7.689e-6,0 H 516.00001 V 728.5 H 7.689e-6 Z"
         id="path118" /></clipPath><clipPath
       clipPathUnits="userSpaceOnUse"
       id="clipPath128"><path
         d="M 7.689e-6,0 H 516.00001 V 728.5 H 7.689e-6 Z"
         id="path126" /></clipPath><clipPath
       clipPathUnits="userSpaceOnUse"
       id="clipPath136"><path
         d="M 7.689e-6,0 H 516.00001 V 728.5 H 7.689e-6 Z"
         id="path134" /></clipPath><clipPath
       clipPathUnits="userSpaceOnUse"
       id="clipPath144"><path
         d="M 7.689e-6,0 H 516.00001 V 728.5 H 7.689e-6 Z"
         id="path142" /></clipPath></defs><g
     id="g10"
     transform="matrix(1.3333333,0,0,-1.3333333,0,971.33333)"><g
       id="g12" /><g
       id="g14"><g
         id="g16"
         clip-path="url(#clipPath20)"><text
           transform="matrix(1,0,0,-1,54.025,644.22)"
           style="font-variant:normal;font-size:10.5px;font-family:UDDigiKyokashoNK;-inkscape-font-specification:UDDigiKyokashoNK-R;writing-mode:lr-tb;fill:#000000;fill-opacity:1;fill-rule:nonzero;stroke:none"
           id="text24"><tspan
             x="0 10.9935 21.987 31.479 39.7215 48.216 57.456001 67.199997 78.193497 88.934998 97.670998 107.6565 117.894 128.3835 133.875 144.8685 155.106 166.0995 176.589 185.577"
             y="0"
             id="tspan22">快速をメイン利用したため、他の班のよう</tspan></text></g></g><g
       id="g26"><g
         id="g28"
         clip-path="url(#clipPath32)"><text
           transform="matrix(1,0,0,-1,54.025,626.22)"
           style="font-variant:normal;font-size:10.5px;font-family:UDDigiKyokashoNK;-inkscape-font-specification:UDDigiKyokashoNK-R;writing-mode:lr-tb;fill:#000000;fill-opacity:1;fill-rule:nonzero;stroke:none"
           id="text36"><tspan
             x="0 9.9855003 20.979 31.720501 42.714001 53.7075 63.4515 73.195503 82.939499 93.177002 103.9185 112.9065 122.6505 133.14 141.63451 151.62 162.61349 168.105 175.33949 186.33299"
             y="0"
             id="tspan34">有料特急は乗らかったが、１回く</tspan></text></g></g><g
       id="g38"><g
         id="g40"
         clip-path="url(#clipPath44)"><text
           transform="matrix(1,0,0,-1,54.025,608.2)"
           style="font-variant:normal;font-size:10.5px;font-family:UDDigiKyokashoNK;-inkscape-font-specification:UDDigiKyokashoNK-R;writing-mode:lr-tb;fill:#000000;fill-opacity:1;fill-rule:nonzero;stroke:none"
           id="text48"><tspan
             x="0 8.7360001 18.500999 29.000999 37.2225 46.252499 56.216999 66.202499 76.4505 84.441002 94.426498 102.669 111.405 121.905 129.89549 139.881 145.3725 153.8775 163.62151 174.36301 184.60049"
             y="0"
             id="tspan46">らい乗っみたかったも思った。また訪れる</tspan></text></g></g><g
       id="g50"><g
         id="g52"
         clip-path="url(#clipPath56)"><text
           transform="matrix(1,0,0,-1,54.025,590.2)"
           style="font-variant:normal;font-size:10.5px;font-family:UDDigiKyokashoNK;-inkscape-font-specification:UDDigiKyokashoNK-R;writing-mode:lr-tb;fill:#000000;fill-opacity:1;fill-rule:nonzero;stroke:none"
           id="text60"><tspan
             x="0 10.9935 21.987 32.7285 42.966 53.455502 64.196999 73.436996 83.6745 94.667999 103.656 114.3975 123.1335 133.119 143.60851 153.84599 164.0835 174.321 182.81551"
             y="0"
             id="tspan58">機会があればその辺も楽しんみたい思</tspan></text></g></g><g
       id="g62"><g
         id="g64"
         clip-path="url(#clipPath68)"><text
           transform="matrix(1,0,0,-1,54.025,572.2)"
           style="font-variant:normal;font-size:10.5px;font-family:UDDigiKyokashoNK;-inkscape-font-specification:UDDigiKyokashoNK-R;writing-mode:lr-tb;fill:#000000;fill-opacity:1;fill-rule:nonzero;stroke:none"
           id="text72"><tspan
             x="0 7.7500501"
             y="0"
             id="tspan70">う。</tspan></text></g></g><g
       id="g74"><g
         id="g76"
         clip-path="url(#clipPath80)" /></g><g
       id="g82"><g
         id="g84"
         clip-path="url(#clipPath88)" /></g><g
       id="g90"><g
         id="g92"
         clip-path="url(#clipPath96)"><text
           transform="matrix(1,0,0,-1,54.025,524.17)"
           style="font-variant:normal;font-size:10.5px;font-family:UDDigiKyokashoNK;-inkscape-font-specification:UDDigiKyokashoNK-R;writing-mode:lr-tb;fill:#000000;fill-opacity:1;fill-rule:nonzero;stroke:none"
           id="text100"><tspan
             x="0 10.7415 21.483 30.219 40.7085 51.450001 61.194 71.683502 81.668999 91.654503 101.64 110.376 120.3615 128.35201 139.09351 147.336 155.32651 164.8185 174.804 184.78951"
             y="0"
             id="tspan98">最後ま読んいただきありがうございま</tspan></text></g></g><g
       id="g102"><g
         id="g104"
         clip-path="url(#clipPath108)"><text
           transform="matrix(1,0,0,-1,54.025,506.17)"
           style="font-variant:normal;font-size:10.5px;font-family:UDDigiKyokashoNK;-inkscape-font-specification:UDDigiKyokashoNK-R;writing-mode:lr-tb;fill:#000000;fill-opacity:1;fill-rule:nonzero;stroke:none"
           id="text112"><tspan
             x="0 8.2425003 17.9865"
             y="0"
             id="tspan110">した。</tspan></text></g></g><g
       id="g114"><g
         id="g116"
         clip-path="url(#clipPath120)" /></g><g
       id="g122"><g
         id="g124"
         clip-path="url(#clipPath128)" /></g><g
       id="g130"><g
         id="g132"
         clip-path="url(#clipPath136)" /></g><g
       id="g138"><g
         id="g140"
         clip-path="url(#clipPath144)" /></g></g></svg>
