<?xml version="1.0" encoding="UTF-8" standalone="no"?>
<svg
   xmlns:dc="http://purl.org/dc/elements/1.1/"
   xmlns:cc="http://creativecommons.org/ns#"
   xmlns:rdf="http://www.w3.org/1999/02/22-rdf-syntax-ns#"
   xmlns:svg="http://www.w3.org/2000/svg"
   xmlns="http://www.w3.org/2000/svg"
   version="1.1"
   id="svg2"
   xml:space="preserve"
   width="688"
   height="971.33331"
   viewBox="0 0 688 971.33331"><metadata
     id="metadata8"><rdf:RDF><cc:Work
         rdf:about=""><dc:format>image/svg+xml</dc:format><dc:type
           rdf:resource="http://purl.org/dc/dcmitype/StillImage" /></cc:Work></rdf:RDF></metadata><defs
     id="defs6"><clipPath
       clipPathUnits="userSpaceOnUse"
       id="clipPath20"><path
         d="M 7.689e-6,0 H 516.00001 V 728.5 H 7.689e-6 Z"
         id="path18" /></clipPath><clipPath
       clipPathUnits="userSpaceOnUse"
       id="clipPath32"><path
         d="M 7.689e-6,0 H 516.00001 V 728.5 H 7.689e-6 Z"
         id="path30" /></clipPath><clipPath
       clipPathUnits="userSpaceOnUse"
       id="clipPath40"><path
         d="M 7.689e-6,0 H 516.00001 V 728.5 H 7.689e-6 Z"
         id="path38" /></clipPath><clipPath
       clipPathUnits="userSpaceOnUse"
       id="clipPath52"><path
         d="M 7.689e-6,0 H 516.00001 V 728.5 H 7.689e-6 Z"
         id="path50" /></clipPath><clipPath
       clipPathUnits="userSpaceOnUse"
       id="clipPath60"><path
         d="M 7.689e-6,0 H 516.00001 V 728.5 H 7.689e-6 Z"
         id="path58" /></clipPath><clipPath
       clipPathUnits="userSpaceOnUse"
       id="clipPath72"><path
         d="M 7.689e-6,0 H 516.00001 V 728.5 H 7.689e-6 Z"
         id="path70" /></clipPath><clipPath
       clipPathUnits="userSpaceOnUse"
       id="clipPath80"><path
         d="M 7.689e-6,0 H 516.00001 V 728.5 H 7.689e-6 Z"
         id="path78" /></clipPath><clipPath
       clipPathUnits="userSpaceOnUse"
       id="clipPath92"><path
         d="M 7.689e-6,0 H 516.00001 V 728.5 H 7.689e-6 Z"
         id="path90" /></clipPath><clipPath
       clipPathUnits="userSpaceOnUse"
       id="clipPath104"><path
         d="M 7.689e-6,0 H 516.00001 V 728.5 H 7.689e-6 Z"
         id="path102" /></clipPath><clipPath
       clipPathUnits="userSpaceOnUse"
       id="clipPath112"><path
         d="M 7.689e-6,0 H 516.00001 V 728.5 H 7.689e-6 Z"
         id="path110" /></clipPath><clipPath
       clipPathUnits="userSpaceOnUse"
       id="clipPath124"><path
         d="M 7.689e-6,0 H 516.00001 V 728.5 H 7.689e-6 Z"
         id="path122" /></clipPath><clipPath
       clipPathUnits="userSpaceOnUse"
       id="clipPath132"><path
         d="M 7.689e-6,0 H 516.00001 V 728.5 H 7.689e-6 Z"
         id="path130" /></clipPath><clipPath
       clipPathUnits="userSpaceOnUse"
       id="clipPath144"><path
         d="M 7.689e-6,0 H 516.00001 V 728.5 H 7.689e-6 Z"
         id="path142" /></clipPath><clipPath
       clipPathUnits="userSpaceOnUse"
       id="clipPath152"><path
         d="M 7.689e-6,0 H 516.00001 V 728.5 H 7.689e-6 Z"
         id="path150" /></clipPath><clipPath
       clipPathUnits="userSpaceOnUse"
       id="clipPath164"><path
         d="M 7.689e-6,0 H 516.00001 V 728.5 H 7.689e-6 Z"
         id="path162" /></clipPath><clipPath
       clipPathUnits="userSpaceOnUse"
       id="clipPath172"><path
         d="M 7.689e-6,0 H 516.00001 V 728.5 H 7.689e-6 Z"
         id="path170" /></clipPath><clipPath
       clipPathUnits="userSpaceOnUse"
       id="clipPath184"><path
         d="M 7.689e-6,0 H 516.00001 V 728.5 H 7.689e-6 Z"
         id="path182" /></clipPath><clipPath
       clipPathUnits="userSpaceOnUse"
       id="clipPath196"><path
         d="M 7.689e-6,0 H 516.00001 V 728.5 H 7.689e-6 Z"
         id="path194" /></clipPath><clipPath
       clipPathUnits="userSpaceOnUse"
       id="clipPath204"><path
         d="M 7.689e-6,0 H 516.00001 V 728.5 H 7.689e-6 Z"
         id="path202" /></clipPath><clipPath
       clipPathUnits="userSpaceOnUse"
       id="clipPath216"><path
         d="M 7.689e-6,0 H 516.00001 V 728.5 H 7.689e-6 Z"
         id="path214" /></clipPath><clipPath
       clipPathUnits="userSpaceOnUse"
       id="clipPath224"><path
         d="M 7.689e-6,0 H 516.00001 V 728.5 H 7.689e-6 Z"
         id="path222" /></clipPath><clipPath
       clipPathUnits="userSpaceOnUse"
       id="clipPath236"><path
         d="M 7.689e-6,0 H 516.00001 V 728.5 H 7.689e-6 Z"
         id="path234" /></clipPath><clipPath
       clipPathUnits="userSpaceOnUse"
       id="clipPath244"><path
         d="M 7.689e-6,0 H 516.00001 V 728.5 H 7.689e-6 Z"
         id="path242" /></clipPath><clipPath
       clipPathUnits="userSpaceOnUse"
       id="clipPath256"><path
         d="M 7.689e-6,0 H 516.00001 V 728.5 H 7.689e-6 Z"
         id="path254" /></clipPath><clipPath
       clipPathUnits="userSpaceOnUse"
       id="clipPath264"><path
         d="M 7.689e-6,0 H 516.00001 V 728.5 H 7.689e-6 Z"
         id="path262" /></clipPath><clipPath
       clipPathUnits="userSpaceOnUse"
       id="clipPath272"><path
         d="M 7.689e-6,0 H 516.00001 V 728.5 H 7.689e-6 Z"
         id="path270" /></clipPath><clipPath
       clipPathUnits="userSpaceOnUse"
       id="clipPath284"><path
         d="M 7.689e-6,0 H 516.00001 V 728.5 H 7.689e-6 Z"
         id="path282" /></clipPath><clipPath
       clipPathUnits="userSpaceOnUse"
       id="clipPath296"><path
         d="M 7.689e-6,0 H 516.00001 V 728.5 H 7.689e-6 Z"
         id="path294" /></clipPath><clipPath
       clipPathUnits="userSpaceOnUse"
       id="clipPath304"><path
         d="M 7.689e-6,0 H 516.00001 V 728.5 H 7.689e-6 Z"
         id="path302" /></clipPath><clipPath
       clipPathUnits="userSpaceOnUse"
       id="clipPath316"><path
         d="M 7.689e-6,0 H 516.00001 V 728.5 H 7.689e-6 Z"
         id="path314" /></clipPath><clipPath
       clipPathUnits="userSpaceOnUse"
       id="clipPath324"><path
         d="M 7.689e-6,0 H 516.00001 V 728.5 H 7.689e-6 Z"
         id="path322" /></clipPath><clipPath
       clipPathUnits="userSpaceOnUse"
       id="clipPath336"><path
         d="M 7.689e-6,0 H 516.00001 V 728.5 H 7.689e-6 Z"
         id="path334" /></clipPath><clipPath
       clipPathUnits="userSpaceOnUse"
       id="clipPath344"><path
         d="M 7.689e-6,0 H 516.00001 V 728.5 H 7.689e-6 Z"
         id="path342" /></clipPath><clipPath
       clipPathUnits="userSpaceOnUse"
       id="clipPath356"><path
         d="M 7.689e-6,0 H 516.00001 V 728.5 H 7.689e-6 Z"
         id="path354" /></clipPath><clipPath
       clipPathUnits="userSpaceOnUse"
       id="clipPath364"><path
         d="M 7.689e-6,0 H 516.00001 V 728.5 H 7.689e-6 Z"
         id="path362" /></clipPath><clipPath
       clipPathUnits="userSpaceOnUse"
       id="clipPath372"><path
         d="M 7.689e-6,0 H 516.00001 V 728.5 H 7.689e-6 Z"
         id="path370" /></clipPath><clipPath
       clipPathUnits="userSpaceOnUse"
       id="clipPath384"><path
         d="M 7.689e-6,0 H 516.00001 V 728.5 H 7.689e-6 Z"
         id="path382" /></clipPath><clipPath
       clipPathUnits="userSpaceOnUse"
       id="clipPath396"><path
         d="M 7.689e-6,0 H 516.00001 V 728.5 H 7.689e-6 Z"
         id="path394" /></clipPath><clipPath
       clipPathUnits="userSpaceOnUse"
       id="clipPath404"><path
         d="M 7.689e-6,0 H 516.00001 V 728.5 H 7.689e-6 Z"
         id="path402" /></clipPath><clipPath
       clipPathUnits="userSpaceOnUse"
       id="clipPath416"><path
         d="M 7.689e-6,0 H 516.00001 V 728.5 H 7.689e-6 Z"
         id="path414" /></clipPath><clipPath
       clipPathUnits="userSpaceOnUse"
       id="clipPath428"><path
         d="M 7.689e-6,0 H 516.00001 V 728.5 H 7.689e-6 Z"
         id="path426" /></clipPath><clipPath
       clipPathUnits="userSpaceOnUse"
       id="clipPath436"><path
         d="M 7.689e-6,0 H 516.00001 V 728.5 H 7.689e-6 Z"
         id="path434" /></clipPath><clipPath
       clipPathUnits="userSpaceOnUse"
       id="clipPath448"><path
         d="M 7.689e-6,0 H 516.00001 V 728.5 H 7.689e-6 Z"
         id="path446" /></clipPath><clipPath
       clipPathUnits="userSpaceOnUse"
       id="clipPath456"><path
         d="M 7.689e-6,0 H 516.00001 V 728.5 H 7.689e-6 Z"
         id="path454" /></clipPath><clipPath
       clipPathUnits="userSpaceOnUse"
       id="clipPath468"><path
         d="M 7.689e-6,0 H 516.00001 V 728.5 H 7.689e-6 Z"
         id="path466" /></clipPath><clipPath
       clipPathUnits="userSpaceOnUse"
       id="clipPath476"><path
         d="M 7.689e-6,0 H 516.00001 V 728.5 H 7.689e-6 Z"
         id="path474" /></clipPath><clipPath
       clipPathUnits="userSpaceOnUse"
       id="clipPath484"><path
         d="M 7.689e-6,0 H 516.00001 V 728.5 H 7.689e-6 Z"
         id="path482" /></clipPath><clipPath
       clipPathUnits="userSpaceOnUse"
       id="clipPath496"><path
         d="M 7.689e-6,0 H 516.00001 V 728.5 H 7.689e-6 Z"
         id="path494" /></clipPath><clipPath
       clipPathUnits="userSpaceOnUse"
       id="clipPath508"><path
         d="M 7.689e-6,0 H 516.00001 V 728.5 H 7.689e-6 Z"
         id="path506" /></clipPath><clipPath
       clipPathUnits="userSpaceOnUse"
       id="clipPath516"><path
         d="M 7.689e-6,0 H 516.00001 V 728.5 H 7.689e-6 Z"
         id="path514" /></clipPath><clipPath
       clipPathUnits="userSpaceOnUse"
       id="clipPath528"><path
         d="M 7.689e-6,0 H 516.00001 V 728.5 H 7.689e-6 Z"
         id="path526" /></clipPath><clipPath
       clipPathUnits="userSpaceOnUse"
       id="clipPath540"><path
         d="M 7.689e-6,0 H 516.00001 V 728.5 H 7.689e-6 Z"
         id="path538" /></clipPath><clipPath
       clipPathUnits="userSpaceOnUse"
       id="clipPath548"><path
         d="M 7.689e-6,0 H 516.00001 V 728.5 H 7.689e-6 Z"
         id="path546" /></clipPath><clipPath
       clipPathUnits="userSpaceOnUse"
       id="clipPath560"><path
         d="M 7.689e-6,0 H 516.00001 V 728.5 H 7.689e-6 Z"
         id="path558" /></clipPath><clipPath
       clipPathUnits="userSpaceOnUse"
       id="clipPath568"><path
         d="M 7.689e-6,0 H 516.00001 V 728.5 H 7.689e-6 Z"
         id="path566" /></clipPath><clipPath
       clipPathUnits="userSpaceOnUse"
       id="clipPath580"><path
         d="M 7.689e-6,0 H 516.00001 V 728.5 H 7.689e-6 Z"
         id="path578" /></clipPath><clipPath
       clipPathUnits="userSpaceOnUse"
       id="clipPath588"><path
         d="M 7.689e-6,0 H 516.00001 V 728.5 H 7.689e-6 Z"
         id="path586" /></clipPath><clipPath
       clipPathUnits="userSpaceOnUse"
       id="clipPath600"><path
         d="M 7.689e-6,0 H 516.00001 V 728.5 H 7.689e-6 Z"
         id="path598" /></clipPath><clipPath
       clipPathUnits="userSpaceOnUse"
       id="clipPath612"><path
         d="M 7.689e-6,0 H 516.00001 V 728.5 H 7.689e-6 Z"
         id="path610" /></clipPath><clipPath
       clipPathUnits="userSpaceOnUse"
       id="clipPath620"><path
         d="M 7.689e-6,0 H 516.00001 V 728.5 H 7.689e-6 Z"
         id="path618" /></clipPath><clipPath
       clipPathUnits="userSpaceOnUse"
       id="clipPath632"><path
         d="M 7.689e-6,0 H 516.00001 V 728.5 H 7.689e-6 Z"
         id="path630" /></clipPath><clipPath
       clipPathUnits="userSpaceOnUse"
       id="clipPath640"><path
         d="M 7.689e-6,0 H 516.00001 V 728.5 H 7.689e-6 Z"
         id="path638" /></clipPath><clipPath
       clipPathUnits="userSpaceOnUse"
       id="clipPath652"><path
         d="M 7.689e-6,0 H 516.00001 V 728.5 H 7.689e-6 Z"
         id="path650" /></clipPath><clipPath
       clipPathUnits="userSpaceOnUse"
       id="clipPath660"><path
         d="M 7.689e-6,0 H 516.00001 V 728.5 H 7.689e-6 Z"
         id="path658" /></clipPath><clipPath
       clipPathUnits="userSpaceOnUse"
       id="clipPath672"><path
         d="M 7.689e-6,0 H 516.00001 V 728.5 H 7.689e-6 Z"
         id="path670" /></clipPath><clipPath
       clipPathUnits="userSpaceOnUse"
       id="clipPath680"><path
         d="M 7.689e-6,0 H 516.00001 V 728.5 H 7.689e-6 Z"
         id="path678" /></clipPath><clipPath
       clipPathUnits="userSpaceOnUse"
       id="clipPath692"><path
         d="M 7.689e-6,0 H 516.00001 V 728.5 H 7.689e-6 Z"
         id="path690" /></clipPath><clipPath
       clipPathUnits="userSpaceOnUse"
       id="clipPath704"><path
         d="M 7.689e-6,0 H 516.00001 V 728.5 H 7.689e-6 Z"
         id="path702" /></clipPath><clipPath
       clipPathUnits="userSpaceOnUse"
       id="clipPath712"><path
         d="M 7.689e-6,0 H 516.00001 V 728.5 H 7.689e-6 Z"
         id="path710" /></clipPath><clipPath
       clipPathUnits="userSpaceOnUse"
       id="clipPath724"><path
         d="M 7.689e-6,0 H 516.00001 V 728.5 H 7.689e-6 Z"
         id="path722" /></clipPath><clipPath
       clipPathUnits="userSpaceOnUse"
       id="clipPath736"><path
         d="M 7.689e-6,0 H 516.00001 V 728.5 H 7.689e-6 Z"
         id="path734" /></clipPath><clipPath
       clipPathUnits="userSpaceOnUse"
       id="clipPath744"><path
         d="M 7.689e-6,0 H 516.00001 V 728.5 H 7.689e-6 Z"
         id="path742" /></clipPath></defs><g
     id="g10"
     transform="matrix(1.3333333,0,0,-1.3333333,0,971.33333)"><g
       id="g12" /><g
       id="g14"><g
         id="g16"
         clip-path="url(#clipPath20)"><text
           transform="matrix(1,0,0,-1,85.05,593.7)"
           style="font-variant:normal;font-size:28px;font-family:UDDigiKyokashoNK;-inkscape-font-specification:UDDigiKyokashoNK-B;writing-mode:lr-tb;fill:#000000;fill-opacity:1;fill-rule:nonzero;stroke:none"
           id="text24"><tspan
             x="0 28.0252"
             y="0"
             id="tspan22">目次</tspan></text></g></g><g
       id="g26"><g
         id="g28"
         clip-path="url(#clipPath32)" /></g><g
       id="g34"><g
         id="g36"
         clip-path="url(#clipPath40)"><text
           transform="matrix(1,0,0,-1,85.05,553.45)"
           style="font-variant:normal;font-size:12px;font-family:UDDigiKyokashoNK;-inkscape-font-specification:UDDigiKyokashoNK-R;writing-mode:lr-tb;fill:#000000;fill-opacity:1;fill-rule:nonzero;stroke:none"
           id="text44"><tspan
             x="0 8.0003996"
             y="0"
             id="tspan42">1.</tspan></text></g></g><g
       id="g46"><g
         id="g48"
         clip-path="url(#clipPath52)" /></g><g
       id="g54"><g
         id="g56"
         clip-path="url(#clipPath60)"><text
           transform="matrix(1,0,0,-1,106.05,553.45)"
           style="font-variant:normal;font-size:12px;font-family:UDDigiKyokashoNK;-inkscape-font-specification:UDDigiKyokashoNK-R;writing-mode:lr-tb;fill:#000000;fill-opacity:1;fill-rule:nonzero;stroke:none"
           id="text64"><tspan
             x="0 12 24 36"
             y="0"
             id="tspan62">部長挨拶</tspan></text></g></g><g
       id="g66"><g
         id="g68"
         clip-path="url(#clipPath72)" /></g><g
       id="g74"><g
         id="g76"
         clip-path="url(#clipPath80)"><text
           transform="matrix(1,0,0,-1,160.08,553.45)"
           style="font-variant:normal;font-size:12px;font-family:UDDigiKyokashoNK;-inkscape-font-specification:UDDigiKyokashoNK-R;writing-mode:lr-tb;fill:#000000;fill-opacity:1;fill-rule:nonzero;stroke:none"
           id="text84"><tspan
             x="0 3.9995999 7.9991999 11.9988 15.9984 19.997999 23.997601 27.9972 31.996799 35.996399 39.995998 43.995602 47.995201 51.994801 55.9944 59.993999 63.993599 67.993202 71.992798 75.992401 79.991997 83.9916 87.991203 91.990799 95.990402 99.989998 103.9896 107.9892 111.9888 115.9884 119.988 123.9876"
             y="0"
             id="tspan82">................................</tspan></text></g></g><g
       id="g86"><g
         id="g88"
         clip-path="url(#clipPath92)"><text
           transform="matrix(1,0,0,-1,288.15,553.45)"
           style="font-variant:normal;font-size:12px;font-family:UDDigiKyokashoNK;-inkscape-font-specification:UDDigiKyokashoNK-R;writing-mode:lr-tb;fill:#000000;fill-opacity:1;fill-rule:nonzero;stroke:none"
           id="text96"><tspan
             x="0 3.9995999 7.9991999 11.9988 15.9984 19.997999 23.997601 27.9972 31.996799 35.996399 39.995998 43.995602 47.995201 51.994801 55.9944 59.993999 63.993599 67.993202 71.992798 75.992401 79.991997"
             y="0"
             id="tspan94">.....................</tspan></text></g></g><g
       id="g98"><g
         id="g100"
         clip-path="url(#clipPath104)" /></g><g
       id="g106"><g
         id="g108"
         clip-path="url(#clipPath112)"><text
           transform="matrix(1,0,0,-1,374.92,553.45)"
           style="font-variant:normal;font-size:12px;font-family:UDDigiKyokashoNK;-inkscape-font-specification:UDDigiKyokashoNK-R;writing-mode:lr-tb;fill:#000000;fill-opacity:1;fill-rule:nonzero;stroke:none"
           id="text116"><tspan
             x="0"
             y="0"
             id="tspan114">３</tspan></text></g></g><g
       id="g118"><g
         id="g120"
         clip-path="url(#clipPath124)" /></g><g
       id="g126"><g
         id="g128"
         clip-path="url(#clipPath132)"><text
           transform="matrix(1,0,0,-1,85.05,517.42)"
           style="font-variant:normal;font-size:12px;font-family:UDDigiKyokashoNK;-inkscape-font-specification:UDDigiKyokashoNK-R;writing-mode:lr-tb;fill:#000000;fill-opacity:1;fill-rule:nonzero;stroke:none"
           id="text136"><tspan
             x="0 8.0003996"
             y="0"
             id="tspan134">2.</tspan></text></g></g><g
       id="g138"><g
         id="g140"
         clip-path="url(#clipPath144)" /></g><g
       id="g146"><g
         id="g148"
         clip-path="url(#clipPath152)"><text
           transform="matrix(1,0,0,-1,106.05,517.42)"
           style="font-variant:normal;font-size:12px;font-family:UDDigiKyokashoNK;-inkscape-font-specification:UDDigiKyokashoNK-R;writing-mode:lr-tb;fill:#000000;fill-opacity:1;fill-rule:nonzero;stroke:none"
           id="text156"><tspan
             x="0 12 24 36"
             y="0"
             id="tspan154">顧問挨拶</tspan></text></g></g><g
       id="g158"><g
         id="g160"
         clip-path="url(#clipPath164)" /></g><g
       id="g166"><g
         id="g168"
         clip-path="url(#clipPath172)"><text
           transform="matrix(1,0,0,-1,160.08,517.42)"
           style="font-variant:normal;font-size:12px;font-family:UDDigiKyokashoNK;-inkscape-font-specification:UDDigiKyokashoNK-R;writing-mode:lr-tb;fill:#000000;fill-opacity:1;fill-rule:nonzero;stroke:none"
           id="text176"><tspan
             x="0 3.9995999 7.9991999 11.9988 15.9984 19.997999 23.997601 27.9972 31.996799 35.996399 39.995998 43.995602 47.995201 51.994801 55.9944 59.993999 63.993599 67.993202 71.992798 75.992401 79.991997 83.9916 87.991203 91.990799 95.990402 99.989998 103.9896 107.9892 111.9888 115.9884 119.988 123.9876"
             y="0"
             id="tspan174">................................</tspan></text></g></g><g
       id="g178"><g
         id="g180"
         clip-path="url(#clipPath184)"><text
           transform="matrix(1,0,0,-1,288.15,517.42)"
           style="font-variant:normal;font-size:12px;font-family:UDDigiKyokashoNK;-inkscape-font-specification:UDDigiKyokashoNK-R;writing-mode:lr-tb;fill:#000000;fill-opacity:1;fill-rule:nonzero;stroke:none"
           id="text188"><tspan
             x="0 3.9995999 7.9991999 11.9988 15.9984 19.997999 23.997601 27.9972 31.996799 35.996399 39.995998 43.995602 47.995201 51.994801 55.9944 59.993999 63.993599 67.993202 71.992798 75.992401 79.991997"
             y="0"
             id="tspan186">.....................</tspan></text></g></g><g
       id="g190"><g
         id="g192"
         clip-path="url(#clipPath196)" /></g><g
       id="g198"><g
         id="g200"
         clip-path="url(#clipPath204)"><text
           transform="matrix(1,0,0,-1,374.92,517.42)"
           style="font-variant:normal;font-size:12px;font-family:UDDigiKyokashoNK;-inkscape-font-specification:UDDigiKyokashoNK-R;writing-mode:lr-tb;fill:#000000;fill-opacity:1;fill-rule:nonzero;stroke:none"
           id="text208"><tspan
             x="0"
             y="0"
             id="tspan206">４</tspan></text></g></g><g
       id="g210"><g
         id="g212"
         clip-path="url(#clipPath216)" /></g><g
       id="g218"><g
         id="g220"
         clip-path="url(#clipPath224)"><text
           transform="matrix(1,0,0,-1,85.05,481.42)"
           style="font-variant:normal;font-size:12px;font-family:UDDigiKyokashoNK;-inkscape-font-specification:UDDigiKyokashoNK-R;writing-mode:lr-tb;fill:#000000;fill-opacity:1;fill-rule:nonzero;stroke:none"
           id="text228"><tspan
             x="0 8.0003996"
             y="0"
             id="tspan226">3.</tspan></text></g></g><g
       id="g230"><g
         id="g232"
         clip-path="url(#clipPath236)" /></g><g
       id="g238"><g
         id="g240"
         clip-path="url(#clipPath244)"><text
           transform="matrix(1,0,0,-1,106.05,481.42)"
           style="font-variant:normal;font-size:12px;font-family:UDDigiKyokashoNK;-inkscape-font-specification:UDDigiKyokashoNK-R;writing-mode:lr-tb;fill:#000000;fill-opacity:1;fill-rule:nonzero;stroke:none"
           id="text248"><tspan
             x="0 7.4879999 19.488001 31.488001 38.976002 50.976002 62.976002 74.459999 86.459999 98.459999 110.46"
             y="0"
             id="tspan246">【特集】関西の鉄道路線</tspan></text></g></g><g
       id="g250"><g
         id="g252"
         clip-path="url(#clipPath256)" /></g><g
       id="g258"><g
         id="g260"
         clip-path="url(#clipPath264)" /></g><g
       id="g266"><g
         id="g268"
         clip-path="url(#clipPath272)"><text
           transform="matrix(1,0,0,-1,236.13,481.42)"
           style="font-variant:normal;font-size:12px;font-family:UDDigiKyokashoNK;-inkscape-font-specification:UDDigiKyokashoNK-R;writing-mode:lr-tb;fill:#000000;fill-opacity:1;fill-rule:nonzero;stroke:none"
           id="text276"><tspan
             x="0 3.9995999 7.9991999 11.9988 15.9984 19.997999 23.997601 27.9972 31.996799 35.996399 39.995998 43.995602 47.995201 51.994801 55.9944 59.993999 63.993599 67.993202 71.992798 75.992401 79.991997 83.9916 87.991203 91.990799 95.990402 99.989998 103.9896 107.9892 111.9888 115.9884 119.988 123.9876"
             y="0"
             id="tspan274">................................</tspan></text></g></g><g
       id="g278"><g
         id="g280"
         clip-path="url(#clipPath284)"><text
           transform="matrix(1,0,0,-1,364.18,481.42)"
           style="font-variant:normal;font-size:12px;font-family:UDDigiKyokashoNK;-inkscape-font-specification:UDDigiKyokashoNK-R;writing-mode:lr-tb;fill:#000000;fill-opacity:1;fill-rule:nonzero;stroke:none"
           id="text288"><tspan
             x="0 3.9995999"
             y="0"
             id="tspan286">..</tspan></text></g></g><g
       id="g290"><g
         id="g292"
         clip-path="url(#clipPath296)" /></g><g
       id="g298"><g
         id="g300"
         clip-path="url(#clipPath304)"><text
           transform="matrix(1,0,0,-1,374.92,481.42)"
           style="font-variant:normal;font-size:12px;font-family:UDDigiKyokashoNK;-inkscape-font-specification:UDDigiKyokashoNK-R;writing-mode:lr-tb;fill:#000000;fill-opacity:1;fill-rule:nonzero;stroke:none"
           id="text308"><tspan
             x="0"
             y="0"
             id="tspan306">7</tspan></text></g></g><g
       id="g310"><g
         id="g312"
         clip-path="url(#clipPath316)" /></g><g
       id="g318"><g
         id="g320"
         clip-path="url(#clipPath324)"><text
           transform="matrix(1,0,0,-1,85.05,445.4)"
           style="font-variant:normal;font-size:12px;font-family:UDDigiKyokashoNK;-inkscape-font-specification:UDDigiKyokashoNK-R;writing-mode:lr-tb;fill:#000000;fill-opacity:1;fill-rule:nonzero;stroke:none"
           id="text328"><tspan
             x="0 8.0003996"
             y="0"
             id="tspan326">4.</tspan></text></g></g><g
       id="g330"><g
         id="g332"
         clip-path="url(#clipPath336)" /></g><g
       id="g338"><g
         id="g340"
         clip-path="url(#clipPath344)"><text
           transform="matrix(1,0,0,-1,106.05,445.4)"
           style="font-variant:normal;font-size:12px;font-family:UDDigiKyokashoNK;-inkscape-font-specification:UDDigiKyokashoNK-R;writing-mode:lr-tb;fill:#000000;fill-opacity:1;fill-rule:nonzero;stroke:none"
           id="text348"><tspan
             x="0 12 24 36 48"
             y="0"
             id="tspan346">特別企画！</tspan></text></g></g><g
       id="g350"><g
         id="g352"
         clip-path="url(#clipPath356)" /></g><g
       id="g358"><g
         id="g360"
         clip-path="url(#clipPath364)" /></g><g
       id="g366"><g
         id="g368"
         clip-path="url(#clipPath372)"><text
           transform="matrix(1,0,0,-1,168.08,445.4)"
           style="font-variant:normal;font-size:12px;font-family:UDDigiKyokashoNK;-inkscape-font-specification:UDDigiKyokashoNK-R;writing-mode:lr-tb;fill:#000000;fill-opacity:1;fill-rule:nonzero;stroke:none"
           id="text376"><tspan
             x="0 3.9995999 7.9991999 11.9988 15.9984 19.997999 23.997601 27.9972 31.996799 35.996399 39.995998 43.995602 47.995201 51.994801 55.9944 59.993999 63.993599 67.993202 71.992798 75.992401 79.991997 83.9916 87.991203 91.990799 95.990402 99.989998 103.9896 107.9892 111.9888 115.9884 119.988 123.9876"
             y="0"
             id="tspan374">................................</tspan></text></g></g><g
       id="g378"><g
         id="g380"
         clip-path="url(#clipPath384)"><text
           transform="matrix(1,0,0,-1,296.15,445.4)"
           style="font-variant:normal;font-size:12px;font-family:UDDigiKyokashoNK;-inkscape-font-specification:UDDigiKyokashoNK-R;writing-mode:lr-tb;fill:#000000;fill-opacity:1;fill-rule:nonzero;stroke:none"
           id="text388"><tspan
             x="0 3.9995999 7.9991999 11.9988 15.9984 19.997999 23.997601 27.9972 31.996799 35.996399 39.995998 43.995602 47.995201 51.994801 55.9944 59.993999 63.993599"
             y="0"
             id="tspan386">.................</tspan></text></g></g><g
       id="g390"><g
         id="g392"
         clip-path="url(#clipPath396)" /></g><g
       id="g398"><g
         id="g400"
         clip-path="url(#clipPath404)"><text
           transform="matrix(1,0,0,-1,367.17,445.4)"
           style="font-variant:normal;font-size:12px;font-family:UDDigiKyokashoNK;-inkscape-font-specification:UDDigiKyokashoNK-R;writing-mode:lr-tb;fill:#000000;fill-opacity:1;fill-rule:nonzero;stroke:none"
           id="text408"><tspan
             x="0"
             y="0"
             id="tspan406">4</tspan></text></g></g><g
       id="g410"><g
         id="g412"
         clip-path="url(#clipPath416)"><text
           transform="matrix(1,0,0,-1,375.17,445.4)"
           style="font-variant:normal;font-size:12px;font-family:UDDigiKyokashoNK;-inkscape-font-specification:UDDigiKyokashoNK-R;writing-mode:lr-tb;fill:#000000;fill-opacity:1;fill-rule:nonzero;stroke:none"
           id="text420"><tspan
             x="0"
             y="0"
             id="tspan418">１</tspan></text></g></g><g
       id="g422"><g
         id="g424"
         clip-path="url(#clipPath428)" /></g><g
       id="g430"><g
         id="g432"
         clip-path="url(#clipPath436)"><text
           transform="matrix(1,0,0,-1,85.05,409.4)"
           style="font-variant:normal;font-size:12px;font-family:UDDigiKyokashoNK;-inkscape-font-specification:UDDigiKyokashoNK-R;writing-mode:lr-tb;fill:#000000;fill-opacity:1;fill-rule:nonzero;stroke:none"
           id="text440"><tspan
             x="0 8.0003996"
             y="0"
             id="tspan438">5.</tspan></text></g></g><g
       id="g442"><g
         id="g444"
         clip-path="url(#clipPath448)" /></g><g
       id="g450"><g
         id="g452"
         clip-path="url(#clipPath456)"><text
           transform="matrix(1,0,0,-1,106.05,409.4)"
           style="font-variant:normal;font-size:12px;font-family:UDDigiKyokashoNK;-inkscape-font-specification:UDDigiKyokashoNK-R;writing-mode:lr-tb;fill:#000000;fill-opacity:1;fill-rule:nonzero;stroke:none"
           id="text460"><tspan
             x="0 12 24 36 45.48 56.736 67.739998"
             y="0"
             id="tspan458">夏合宿レポート</tspan></text></g></g><g
       id="g462"><g
         id="g464"
         clip-path="url(#clipPath468)" /></g><g
       id="g470"><g
         id="g472"
         clip-path="url(#clipPath476)" /></g><g
       id="g478"><g
         id="g480"
         clip-path="url(#clipPath484)"><text
           transform="matrix(1,0,0,-1,188.1,409.4)"
           style="font-variant:normal;font-size:12px;font-family:UDDigiKyokashoNK;-inkscape-font-specification:UDDigiKyokashoNK-R;writing-mode:lr-tb;fill:#000000;fill-opacity:1;fill-rule:nonzero;stroke:none"
           id="text488"><tspan
             x="0 3.9995999 7.9991999 11.9988 15.9984 19.997999 23.997601 27.9972 31.996799 35.996399 39.995998 43.995602 47.995201 51.994801 55.9944 59.993999 63.993599 67.993202 71.992798 75.992401 79.991997 83.9916 87.991203 91.990799 95.990402 99.989998 103.9896 107.9892 111.9888 115.9884 119.988 123.9876"
             y="0"
             id="tspan486">................................</tspan></text></g></g><g
       id="g490"><g
         id="g492"
         clip-path="url(#clipPath496)"><text
           transform="matrix(1,0,0,-1,316.15,409.4)"
           style="font-variant:normal;font-size:12px;font-family:UDDigiKyokashoNK;-inkscape-font-specification:UDDigiKyokashoNK-R;writing-mode:lr-tb;fill:#000000;fill-opacity:1;fill-rule:nonzero;stroke:none"
           id="text500"><tspan
             x="0 3.9995999 7.9991999 11.9988 15.9984 19.997999 23.997601 27.9972 31.996799 35.996399 39.995998 43.995602"
             y="0"
             id="tspan498">............</tspan></text></g></g><g
       id="g502"><g
         id="g504"
         clip-path="url(#clipPath508)" /></g><g
       id="g510"><g
         id="g512"
         clip-path="url(#clipPath516)"><text
           transform="matrix(1,0,0,-1,367.17,409.4)"
           style="font-variant:normal;font-size:12px;font-family:UDDigiKyokashoNK;-inkscape-font-specification:UDDigiKyokashoNK-R;writing-mode:lr-tb;fill:#000000;fill-opacity:1;fill-rule:nonzero;stroke:none"
           id="text520"><tspan
             x="0"
             y="0"
             id="tspan518">5</tspan></text></g></g><g
       id="g522"><g
         id="g524"
         clip-path="url(#clipPath528)"><text
           transform="matrix(1,0,0,-1,375.17,409.4)"
           style="font-variant:normal;font-size:12px;font-family:UDDigiKyokashoNK;-inkscape-font-specification:UDDigiKyokashoNK-R;writing-mode:lr-tb;fill:#000000;fill-opacity:1;fill-rule:nonzero;stroke:none"
           id="text532"><tspan
             x="0"
             y="0"
             id="tspan530">０</tspan></text></g></g><g
       id="g534"><g
         id="g536"
         clip-path="url(#clipPath540)" /></g><g
       id="g542"><g
         id="g544"
         clip-path="url(#clipPath548)"><text
           transform="matrix(1,0,0,-1,85.05,373.38)"
           style="font-variant:normal;font-size:12px;font-family:UDDigiKyokashoNK;-inkscape-font-specification:UDDigiKyokashoNK-R;writing-mode:lr-tb;fill:#000000;fill-opacity:1;fill-rule:nonzero;stroke:none"
           id="text552"><tspan
             x="0 8.0003996"
             y="0"
             id="tspan550">6.</tspan></text></g></g><g
       id="g554"><g
         id="g556"
         clip-path="url(#clipPath560)" /></g><g
       id="g562"><g
         id="g564"
         clip-path="url(#clipPath568)"><text
           transform="matrix(1,0,0,-1,106.05,373.38)"
           style="font-variant:normal;font-size:12px;font-family:UDDigiKyokashoNK;-inkscape-font-specification:UDDigiKyokashoNK-R;writing-mode:lr-tb;fill:#000000;fill-opacity:1;fill-rule:nonzero;stroke:none"
           id="text572"><tspan
             x="0 12 24 36"
             y="0"
             id="tspan570">自由投稿</tspan></text></g></g><g
       id="g574"><g
         id="g576"
         clip-path="url(#clipPath580)" /></g><g
       id="g582"><g
         id="g584"
         clip-path="url(#clipPath588)"><text
           transform="matrix(1,0,0,-1,160.08,373.38)"
           style="font-variant:normal;font-size:12px;font-family:UDDigiKyokashoNK;-inkscape-font-specification:UDDigiKyokashoNK-R;writing-mode:lr-tb;fill:#000000;fill-opacity:1;fill-rule:nonzero;stroke:none"
           id="text592"><tspan
             x="0 3.9995999 7.9991999 11.9988 15.9984 19.997999 23.997601 27.9972 31.996799 35.996399 39.995998 43.995602 47.995201 51.994801 55.9944 59.993999 63.993599 67.993202 71.992798 75.992401 79.991997 83.9916 87.991203 91.990799 95.990402 99.989998 103.9896 107.9892 111.9888 115.9884 119.988 123.9876"
             y="0"
             id="tspan590">................................</tspan></text></g></g><g
       id="g594"><g
         id="g596"
         clip-path="url(#clipPath600)"><text
           transform="matrix(1,0,0,-1,288.15,373.38)"
           style="font-variant:normal;font-size:12px;font-family:UDDigiKyokashoNK;-inkscape-font-specification:UDDigiKyokashoNK-R;writing-mode:lr-tb;fill:#000000;fill-opacity:1;fill-rule:nonzero;stroke:none"
           id="text604"><tspan
             x="0 3.9995999 7.9991999 11.9988 15.9984 19.997999 23.997601 27.9972 31.996799 35.996399 39.995998 43.995602 47.995201 51.994801 55.9944 59.993999 63.993599 67.993202 71.992798"
             y="0"
             id="tspan602">...................</tspan></text></g></g><g
       id="g606"><g
         id="g608"
         clip-path="url(#clipPath612)" /></g><g
       id="g614"><g
         id="g616"
         clip-path="url(#clipPath620)"><text
           transform="matrix(1,0,0,-1,367.17,373.38)"
           style="font-variant:normal;font-size:12px;font-family:UDDigiKyokashoNK;-inkscape-font-specification:UDDigiKyokashoNK-R;writing-mode:lr-tb;fill:#000000;fill-opacity:1;fill-rule:nonzero;stroke:none"
           id="text624"><tspan
             x="0 8.0003996"
             y="0"
             id="tspan622">８７</tspan></text></g></g><g
       id="g626"><g
         id="g628"
         clip-path="url(#clipPath632)" /></g><g
       id="g634"><g
         id="g636"
         clip-path="url(#clipPath640)"><text
           transform="matrix(1,0,0,-1,85.05,337.38)"
           style="font-variant:normal;font-size:12px;font-family:UDDigiKyokashoNK;-inkscape-font-specification:UDDigiKyokashoNK-R;writing-mode:lr-tb;fill:#000000;fill-opacity:1;fill-rule:nonzero;stroke:none"
           id="text644"><tspan
             x="0 8.0003996"
             y="0"
             id="tspan642">7.</tspan></text></g></g><g
       id="g646"><g
         id="g648"
         clip-path="url(#clipPath652)" /></g><g
       id="g654"><g
         id="g656"
         clip-path="url(#clipPath660)"><text
           transform="matrix(1,0,0,-1,106.05,337.38)"
           style="font-variant:normal;font-size:12px;font-family:UDDigiKyokashoNK;-inkscape-font-specification:UDDigiKyokashoNK-R;writing-mode:lr-tb;fill:#000000;fill-opacity:1;fill-rule:nonzero;stroke:none"
           id="text664"><tspan
             x="0 12 24 36"
             y="0"
             id="tspan662">乗務員室</tspan></text></g></g><g
       id="g666"><g
         id="g668"
         clip-path="url(#clipPath672)" /></g><g
       id="g674"><g
         id="g676"
         clip-path="url(#clipPath680)"><text
           transform="matrix(1,0,0,-1,160.08,337.38)"
           style="font-variant:normal;font-size:12px;font-family:UDDigiKyokashoNK;-inkscape-font-specification:UDDigiKyokashoNK-R;writing-mode:lr-tb;fill:#000000;fill-opacity:1;fill-rule:nonzero;stroke:none"
           id="text684"><tspan
             x="0 3.9995999 7.9991999 11.9988 15.9984 19.997999 23.997601 27.9972 31.996799 35.996399 39.995998 43.995602 47.995201 51.994801 55.9944 59.993999 63.993599 67.993202 71.992798 75.992401 79.991997 83.9916 87.991203 91.990799 95.990402 99.989998 103.9896 107.9892 111.9888 115.9884 119.988 123.9876"
             y="0"
             id="tspan682">................................</tspan></text></g></g><g
       id="g686"><g
         id="g688"
         clip-path="url(#clipPath692)"><text
           transform="matrix(1,0,0,-1,288.15,337.38)"
           style="font-variant:normal;font-size:12px;font-family:UDDigiKyokashoNK;-inkscape-font-specification:UDDigiKyokashoNK-R;writing-mode:lr-tb;fill:#000000;fill-opacity:1;fill-rule:nonzero;stroke:none"
           id="text696"><tspan
             x="0 3.9995999 7.9991999 11.9988 15.9984 19.997999 23.997601 27.9972 31.996799 35.996399 39.995998 43.995602 47.995201 51.994801 55.9944 59.993999 63.993599"
             y="0"
             id="tspan694">.................</tspan></text></g></g><g
       id="g698"><g
         id="g700"
         clip-path="url(#clipPath704)" /></g><g
       id="g706"><g
         id="g708"
         clip-path="url(#clipPath712)"><text
           transform="matrix(1,0,0,-1,359.17,337.38)"
           style="font-variant:normal;font-size:12px;font-family:UDDigiKyokashoNK;-inkscape-font-specification:UDDigiKyokashoNK-R;writing-mode:lr-tb;fill:#000000;fill-opacity:1;fill-rule:nonzero;stroke:none"
           id="text716"><tspan
             x="0"
             y="0"
             id="tspan714">1</tspan></text></g></g><g
       id="g718"><g
         id="g720"
         clip-path="url(#clipPath724)"><text
           transform="matrix(1,0,0,-1,367.17,337.38)"
           style="font-variant:normal;font-size:12px;font-family:UDDigiKyokashoNK;-inkscape-font-specification:UDDigiKyokashoNK-R;writing-mode:lr-tb;fill:#000000;fill-opacity:1;fill-rule:nonzero;stroke:none"
           id="text728"><tspan
             x="0 8.0003996"
             y="0"
             id="tspan726">０１</tspan></text></g></g><g
       id="g730"><g
         id="g732"
         clip-path="url(#clipPath736)" /></g><g
       id="g738"><g
         id="g740"
         clip-path="url(#clipPath744)" /></g></g></svg>
