<?xml version="1.0" encoding="UTF-8" standalone="no"?>
<svg
   xmlns:dc="http://purl.org/dc/elements/1.1/"
   xmlns:cc="http://creativecommons.org/ns#"
   xmlns:rdf="http://www.w3.org/1999/02/22-rdf-syntax-ns#"
   xmlns:svg="http://www.w3.org/2000/svg"
   xmlns="http://www.w3.org/2000/svg"
   version="1.1"
   id="svg2"
   xml:space="preserve"
   width="688"
   height="971.33331"
   viewBox="0 0 688 971.33331"><metadata
     id="metadata8"><rdf:RDF><cc:Work
         rdf:about=""><dc:format>image/svg+xml</dc:format><dc:type
           rdf:resource="http://purl.org/dc/dcmitype/StillImage" /></cc:Work></rdf:RDF></metadata><defs
     id="defs6"><clipPath
       clipPathUnits="userSpaceOnUse"
       id="clipPath20"><path
         d="M 7.689e-6,0 H 516.00001 V 728.5 H 7.689e-6 Z"
         id="path18" /></clipPath><clipPath
       clipPathUnits="userSpaceOnUse"
       id="clipPath32"><path
         d="M 7.689e-6,0 H 516.00001 V 728.5 H 7.689e-6 Z"
         id="path30" /></clipPath><clipPath
       clipPathUnits="userSpaceOnUse"
       id="clipPath40"><path
         d="M 7.689e-6,0 H 516.00001 V 728.5 H 7.689e-6 Z"
         id="path38" /></clipPath><clipPath
       clipPathUnits="userSpaceOnUse"
       id="clipPath52"><path
         d="M 7.689e-6,0 H 516.00001 V 728.5 H 7.689e-6 Z"
         id="path50" /></clipPath><clipPath
       clipPathUnits="userSpaceOnUse"
       id="clipPath64"><path
         d="M 7.689e-6,0 H 516.00001 V 728.5 H 7.689e-6 Z"
         id="path62" /></clipPath><clipPath
       clipPathUnits="userSpaceOnUse"
       id="clipPath76"><path
         d="M 7.689e-6,0 H 516.00001 V 728.5 H 7.689e-6 Z"
         id="path74" /></clipPath><clipPath
       clipPathUnits="userSpaceOnUse"
       id="clipPath88"><path
         d="M 7.689e-6,0 H 516.00001 V 728.5 H 7.689e-6 Z"
         id="path86" /></clipPath><clipPath
       clipPathUnits="userSpaceOnUse"
       id="clipPath100"><path
         d="M 7.689e-6,0 H 516.00001 V 728.5 H 7.689e-6 Z"
         id="path98" /></clipPath><clipPath
       clipPathUnits="userSpaceOnUse"
       id="clipPath112"><path
         d="M 7.689e-6,0 H 516.00001 V 728.5 H 7.689e-6 Z"
         id="path110" /></clipPath><clipPath
       clipPathUnits="userSpaceOnUse"
       id="clipPath124"><path
         d="M 7.689e-6,0 H 516.00001 V 728.5 H 7.689e-6 Z"
         id="path122" /></clipPath><clipPath
       clipPathUnits="userSpaceOnUse"
       id="clipPath132"><path
         d="M 7.689e-6,0 H 516.00001 V 728.5 H 7.689e-6 Z"
         id="path130" /></clipPath><clipPath
       clipPathUnits="userSpaceOnUse"
       id="clipPath144"><path
         d="M 7.689e-6,0 H 516.00001 V 728.5 H 7.689e-6 Z"
         id="path142" /></clipPath><clipPath
       clipPathUnits="userSpaceOnUse"
       id="clipPath156"><path
         d="M 7.689e-6,0 H 516.00001 V 728.5 H 7.689e-6 Z"
         id="path154" /></clipPath><clipPath
       clipPathUnits="userSpaceOnUse"
       id="clipPath168"><path
         d="M 7.689e-6,0 H 516.00001 V 728.5 H 7.689e-6 Z"
         id="path166" /></clipPath><clipPath
       clipPathUnits="userSpaceOnUse"
       id="clipPath176"><path
         d="M 7.689e-6,0 H 516.00001 V 728.5 H 7.689e-6 Z"
         id="path174" /></clipPath><clipPath
       clipPathUnits="userSpaceOnUse"
       id="clipPath184"><path
         d="M 7.689e-6,0 H 516.00001 V 728.5 H 7.689e-6 Z"
         id="path182" /></clipPath><clipPath
       clipPathUnits="userSpaceOnUse"
       id="clipPath196"><path
         d="M 7.689e-6,0 H 516.00001 V 728.5 H 7.689e-6 Z"
         id="path194" /></clipPath><clipPath
       clipPathUnits="userSpaceOnUse"
       id="clipPath208"><path
         d="M 7.689e-6,0 H 516.00001 V 728.5 H 7.689e-6 Z"
         id="path206" /></clipPath><clipPath
       clipPathUnits="userSpaceOnUse"
       id="clipPath216"><path
         d="M 7.689e-6,0 H 516.00001 V 728.5 H 7.689e-6 Z"
         id="path214" /></clipPath><clipPath
       clipPathUnits="userSpaceOnUse"
       id="clipPath228"><path
         d="M 7.689e-6,0 H 516.00001 V 728.5 H 7.689e-6 Z"
         id="path226" /></clipPath><clipPath
       clipPathUnits="userSpaceOnUse"
       id="clipPath240"><path
         d="M 7.689e-6,0 H 516.00001 V 728.5 H 7.689e-6 Z"
         id="path238" /></clipPath><clipPath
       clipPathUnits="userSpaceOnUse"
       id="clipPath248"><path
         d="M 7.689e-6,0 H 516.00001 V 728.5 H 7.689e-6 Z"
         id="path246" /></clipPath><clipPath
       clipPathUnits="userSpaceOnUse"
       id="clipPath256"><path
         d="M 7.689e-6,0 H 516.00001 V 728.5 H 7.689e-6 Z"
         id="path254" /></clipPath><clipPath
       clipPathUnits="userSpaceOnUse"
       id="clipPath268"><path
         d="M 7.689e-6,0 H 516.00001 V 728.5 H 7.689e-6 Z"
         id="path266" /></clipPath><clipPath
       clipPathUnits="userSpaceOnUse"
       id="clipPath280"><path
         d="M 7.689e-6,0 H 516.00001 V 728.5 H 7.689e-6 Z"
         id="path278" /></clipPath><clipPath
       clipPathUnits="userSpaceOnUse"
       id="clipPath292"><path
         d="M 7.689e-6,0 H 516.00001 V 728.5 H 7.689e-6 Z"
         id="path290" /></clipPath><clipPath
       clipPathUnits="userSpaceOnUse"
       id="clipPath300"><path
         d="M 7.689e-6,0 H 516.00001 V 728.5 H 7.689e-6 Z"
         id="path298" /></clipPath><clipPath
       clipPathUnits="userSpaceOnUse"
       id="clipPath312"><path
         d="M 7.689e-6,0 H 516.00001 V 728.5 H 7.689e-6 Z"
         id="path310" /></clipPath><clipPath
       clipPathUnits="userSpaceOnUse"
       id="clipPath324"><path
         d="M 7.689e-6,0 H 516.00001 V 728.5 H 7.689e-6 Z"
         id="path322" /></clipPath><clipPath
       clipPathUnits="userSpaceOnUse"
       id="clipPath332"><path
         d="M 7.689e-6,0 H 516.00001 V 728.5 H 7.689e-6 Z"
         id="path330" /></clipPath><clipPath
       clipPathUnits="userSpaceOnUse"
       id="clipPath344"><path
         d="M 7.689e-6,0 H 516.00001 V 728.5 H 7.689e-6 Z"
         id="path342" /></clipPath><clipPath
       clipPathUnits="userSpaceOnUse"
       id="clipPath352"><path
         d="M 7.689e-6,0 H 516.00001 V 728.5 H 7.689e-6 Z"
         id="path350" /></clipPath><clipPath
       clipPathUnits="userSpaceOnUse"
       id="clipPath364"><path
         d="M 7.689e-6,0 H 516.00001 V 728.5 H 7.689e-6 Z"
         id="path362" /></clipPath><clipPath
       clipPathUnits="userSpaceOnUse"
       id="clipPath376"><path
         d="M 7.689e-6,0 H 516.00001 V 728.5 H 7.689e-6 Z"
         id="path374" /></clipPath><clipPath
       clipPathUnits="userSpaceOnUse"
       id="clipPath384"><path
         d="M 7.689e-6,0 H 516.00001 V 728.5 H 7.689e-6 Z"
         id="path382" /></clipPath><clipPath
       clipPathUnits="userSpaceOnUse"
       id="clipPath396"><path
         d="M 7.689e-6,0 H 516.00001 V 728.5 H 7.689e-6 Z"
         id="path394" /></clipPath><clipPath
       clipPathUnits="userSpaceOnUse"
       id="clipPath404"><path
         d="M 7.689e-6,0 H 516.00001 V 728.5 H 7.689e-6 Z"
         id="path402" /></clipPath><clipPath
       clipPathUnits="userSpaceOnUse"
       id="clipPath416"><path
         d="M 7.689e-6,0 H 516.00001 V 728.5 H 7.689e-6 Z"
         id="path414" /></clipPath><clipPath
       clipPathUnits="userSpaceOnUse"
       id="clipPath428"><path
         d="M 7.689e-6,0 H 516.00001 V 728.5 H 7.689e-6 Z"
         id="path426" /></clipPath><clipPath
       clipPathUnits="userSpaceOnUse"
       id="clipPath436"><path
         d="M 7.689e-6,0 H 516.00001 V 728.5 H 7.689e-6 Z"
         id="path434" /></clipPath><clipPath
       clipPathUnits="userSpaceOnUse"
       id="clipPath448"><path
         d="M 7.689e-6,0 H 516.00001 V 728.5 H 7.689e-6 Z"
         id="path446" /></clipPath><clipPath
       clipPathUnits="userSpaceOnUse"
       id="clipPath456"><path
         d="M 7.689e-6,0 H 516.00001 V 728.5 H 7.689e-6 Z"
         id="path454" /></clipPath><clipPath
       clipPathUnits="userSpaceOnUse"
       id="clipPath468"><path
         d="M 7.689e-6,0 H 516.00001 V 728.5 H 7.689e-6 Z"
         id="path466" /></clipPath><clipPath
       clipPathUnits="userSpaceOnUse"
       id="clipPath480"><path
         d="M 7.689e-6,0 H 516.00001 V 728.5 H 7.689e-6 Z"
         id="path478" /></clipPath><clipPath
       clipPathUnits="userSpaceOnUse"
       id="clipPath488"><path
         d="M 7.689e-6,0 H 516.00001 V 728.5 H 7.689e-6 Z"
         id="path486" /></clipPath><clipPath
       clipPathUnits="userSpaceOnUse"
       id="clipPath500"><path
         d="M 7.689e-6,0 H 516.00001 V 728.5 H 7.689e-6 Z"
         id="path498" /></clipPath><clipPath
       clipPathUnits="userSpaceOnUse"
       id="clipPath512"><path
         d="M 7.689e-6,0 H 516.00001 V 728.5 H 7.689e-6 Z"
         id="path510" /></clipPath><clipPath
       clipPathUnits="userSpaceOnUse"
       id="clipPath524"><path
         d="M 7.689e-6,0 H 516.00001 V 728.5 H 7.689e-6 Z"
         id="path522" /></clipPath><clipPath
       clipPathUnits="userSpaceOnUse"
       id="clipPath532"><path
         d="M 7.689e-6,0 H 516.00001 V 728.5 H 7.689e-6 Z"
         id="path530" /></clipPath><clipPath
       clipPathUnits="userSpaceOnUse"
       id="clipPath544"><path
         d="M 7.689e-6,0 H 516.00001 V 728.5 H 7.689e-6 Z"
         id="path542" /></clipPath><clipPath
       clipPathUnits="userSpaceOnUse"
       id="clipPath556"><path
         d="M 7.689e-6,0 H 516.00001 V 728.5 H 7.689e-6 Z"
         id="path554" /></clipPath><clipPath
       clipPathUnits="userSpaceOnUse"
       id="clipPath564"><path
         d="M 7.689e-6,0 H 516.00001 V 728.5 H 7.689e-6 Z"
         id="path562" /></clipPath><clipPath
       clipPathUnits="userSpaceOnUse"
       id="clipPath576"><path
         d="M 7.689e-6,0 H 516.00001 V 728.5 H 7.689e-6 Z"
         id="path574" /></clipPath><clipPath
       clipPathUnits="userSpaceOnUse"
       id="clipPath584"><path
         d="M 7.689e-6,0 H 516.00001 V 728.5 H 7.689e-6 Z"
         id="path582" /></clipPath><clipPath
       clipPathUnits="userSpaceOnUse"
       id="clipPath596"><path
         d="M 7.689e-6,0 H 516.00001 V 728.5 H 7.689e-6 Z"
         id="path594" /></clipPath><clipPath
       clipPathUnits="userSpaceOnUse"
       id="clipPath608"><path
         d="M 7.689e-6,0 H 516.00001 V 728.5 H 7.689e-6 Z"
         id="path606" /></clipPath><clipPath
       clipPathUnits="userSpaceOnUse"
       id="clipPath616"><path
         d="M 7.689e-6,0 H 516.00001 V 728.5 H 7.689e-6 Z"
         id="path614" /></clipPath><clipPath
       clipPathUnits="userSpaceOnUse"
       id="clipPath628"><path
         d="M 7.689e-6,0 H 516.00001 V 728.5 H 7.689e-6 Z"
         id="path626" /></clipPath><clipPath
       clipPathUnits="userSpaceOnUse"
       id="clipPath636"><path
         d="M 7.689e-6,0 H 516.00001 V 728.5 H 7.689e-6 Z"
         id="path634" /></clipPath><clipPath
       clipPathUnits="userSpaceOnUse"
       id="clipPath648"><path
         d="M 7.689e-6,0 H 516.00001 V 728.5 H 7.689e-6 Z"
         id="path646" /></clipPath><clipPath
       clipPathUnits="userSpaceOnUse"
       id="clipPath660"><path
         d="M 7.689e-6,0 H 516.00001 V 728.5 H 7.689e-6 Z"
         id="path658" /></clipPath><clipPath
       clipPathUnits="userSpaceOnUse"
       id="clipPath668"><path
         d="M 7.689e-6,0 H 516.00001 V 728.5 H 7.689e-6 Z"
         id="path666" /></clipPath><clipPath
       clipPathUnits="userSpaceOnUse"
       id="clipPath680"><path
         d="M 7.689e-6,0 H 516.00001 V 728.5 H 7.689e-6 Z"
         id="path678" /></clipPath><clipPath
       clipPathUnits="userSpaceOnUse"
       id="clipPath692"><path
         d="M 7.689e-6,0 H 516.00001 V 728.5 H 7.689e-6 Z"
         id="path690" /></clipPath><clipPath
       clipPathUnits="userSpaceOnUse"
       id="clipPath704"><path
         d="M 7.689e-6,0 H 516.00001 V 728.5 H 7.689e-6 Z"
         id="path702" /></clipPath><clipPath
       clipPathUnits="userSpaceOnUse"
       id="clipPath712"><path
         d="M 7.689e-6,0 H 516.00001 V 728.5 H 7.689e-6 Z"
         id="path710" /></clipPath><clipPath
       clipPathUnits="userSpaceOnUse"
       id="clipPath724"><path
         d="M 7.689e-6,0 H 516.00001 V 728.5 H 7.689e-6 Z"
         id="path722" /></clipPath><clipPath
       clipPathUnits="userSpaceOnUse"
       id="clipPath736"><path
         d="M 7.689e-6,0 H 516.00001 V 728.5 H 7.689e-6 Z"
         id="path734" /></clipPath><clipPath
       clipPathUnits="userSpaceOnUse"
       id="clipPath744"><path
         d="M 7.689e-6,0 H 516.00001 V 728.5 H 7.689e-6 Z"
         id="path742" /></clipPath><clipPath
       clipPathUnits="userSpaceOnUse"
       id="clipPath756"><path
         d="M 7.689e-6,0 H 516.00001 V 728.5 H 7.689e-6 Z"
         id="path754" /></clipPath><clipPath
       clipPathUnits="userSpaceOnUse"
       id="clipPath764"><path
         d="M 7.689e-6,0 H 516.00001 V 728.5 H 7.689e-6 Z"
         id="path762" /></clipPath><clipPath
       clipPathUnits="userSpaceOnUse"
       id="clipPath776"><path
         d="M 7.689e-6,0 H 516.00001 V 728.5 H 7.689e-6 Z"
         id="path774" /></clipPath><clipPath
       clipPathUnits="userSpaceOnUse"
       id="clipPath788"><path
         d="M 7.689e-6,0 H 516.00001 V 728.5 H 7.689e-6 Z"
         id="path786" /></clipPath><clipPath
       clipPathUnits="userSpaceOnUse"
       id="clipPath796"><path
         d="M 7.689e-6,0 H 516.00001 V 728.5 H 7.689e-6 Z"
         id="path794" /></clipPath><clipPath
       clipPathUnits="userSpaceOnUse"
       id="clipPath808"><path
         d="M 7.689e-6,0 H 516.00001 V 728.5 H 7.689e-6 Z"
         id="path806" /></clipPath><clipPath
       clipPathUnits="userSpaceOnUse"
       id="clipPath816"><path
         d="M 7.689e-6,0 H 516.00001 V 728.5 H 7.689e-6 Z"
         id="path814" /></clipPath><clipPath
       clipPathUnits="userSpaceOnUse"
       id="clipPath828"><path
         d="M 7.689e-6,0 H 516.00001 V 728.5 H 7.689e-6 Z"
         id="path826" /></clipPath><clipPath
       clipPathUnits="userSpaceOnUse"
       id="clipPath840"><path
         d="M 7.689e-6,0 H 516.00001 V 728.5 H 7.689e-6 Z"
         id="path838" /></clipPath><clipPath
       clipPathUnits="userSpaceOnUse"
       id="clipPath848"><path
         d="M 7.689e-6,0 H 516.00001 V 728.5 H 7.689e-6 Z"
         id="path846" /></clipPath><clipPath
       clipPathUnits="userSpaceOnUse"
       id="clipPath860"><path
         d="M 7.689e-6,0 H 516.00001 V 728.5 H 7.689e-6 Z"
         id="path858" /></clipPath><clipPath
       clipPathUnits="userSpaceOnUse"
       id="clipPath868"><path
         d="M 7.689e-6,0 H 516.00001 V 728.5 H 7.689e-6 Z"
         id="path866" /></clipPath><clipPath
       clipPathUnits="userSpaceOnUse"
       id="clipPath880"><path
         d="M 7.689e-6,0 H 516.00001 V 728.5 H 7.689e-6 Z"
         id="path878" /></clipPath><clipPath
       clipPathUnits="userSpaceOnUse"
       id="clipPath892"><path
         d="M 7.689e-6,0 H 516.00001 V 728.5 H 7.689e-6 Z"
         id="path890" /></clipPath><clipPath
       clipPathUnits="userSpaceOnUse"
       id="clipPath904"><path
         d="M 7.689e-6,0 H 516.00001 V 728.5 H 7.689e-6 Z"
         id="path902" /></clipPath><clipPath
       clipPathUnits="userSpaceOnUse"
       id="clipPath912"><path
         d="M 7.689e-6,0 H 516.00001 V 728.5 H 7.689e-6 Z"
         id="path910" /></clipPath><clipPath
       clipPathUnits="userSpaceOnUse"
       id="clipPath920"><path
         d="M 7.689e-6,0 H 516.00001 V 728.5 H 7.689e-6 Z"
         id="path918" /></clipPath><clipPath
       clipPathUnits="userSpaceOnUse"
       id="clipPath928"><path
         d="M 7.689e-6,0 H 516.00001 V 728.5 H 7.689e-6 Z"
         id="path926" /></clipPath></defs><g
     id="g10"
     transform="matrix(1.3333333,0,0,-1.3333333,0,971.33333)"><g
       id="g12" /><g
       id="g14"><g
         id="g16"
         clip-path="url(#clipPath20)"><text
           transform="matrix(1,0,0,-1,42.525,652.97)"
           style="font-variant:normal;font-size:12px;font-family:UDDigiKyokashoNK;-inkscape-font-specification:UDDigiKyokashoNK-B;writing-mode:lr-tb;fill:#000000;fill-opacity:1;fill-rule:nonzero;stroke:none"
           id="text24"><tspan
             x="0 12 22.511999 32.784 44.495998 54 65.255997 74.748001 85.991997 95.987999 105.48 117.228"
             y="0"
             id="tspan22">◯コラボとなったきっかけ</tspan></text></g></g><g
       id="g26"><g
         id="g28"
         clip-path="url(#clipPath32)" /></g><g
       id="g34"><g
         id="g36"
         clip-path="url(#clipPath40)"><text
           transform="matrix(1,0,0,-1,53.025,626.47)"
           style="font-variant:normal;font-size:10.5px;font-family:UDDigiKyokashoNK;-inkscape-font-specification:UDDigiKyokashoNK-R;writing-mode:lr-tb;fill:#000000;fill-opacity:1;fill-rule:nonzero;stroke:none"
           id="text44"><tspan
             x="0 10.5 20.243999 30.743999 41.4855 49.4655 59.976002 68.711998 75.705002 86.205002 96.946503 105.4515 115.941 124.677 131.67 142.17 151.662 162.162 171.90601 182.15401 192.1395 200.6445 208.88699 218.8725"
             y="0"
             id="tspan42">私は鉄道イベントが好きよく足を運んいました。</tspan></text></g></g><g
       id="g46"><g
         id="g48"
         clip-path="url(#clipPath52)"><text
           transform="matrix(1,0,0,-1,277.38,626.47)"
           style="font-variant:normal;font-size:10.5px;font-family:UDDigiKyokashoNK;-inkscape-font-specification:UDDigiKyokashoNK-R;writing-mode:lr-tb;fill:#000000;fill-opacity:1;fill-rule:nonzero;stroke:none"
           id="text56"><tspan
             x="0 10.7415 21.483 31.983 42.483002 52.9725 62.716499 71.452499 82.194 92.694 101.43 110.9325"
             y="0"
             id="tspan54">私が社長ある井上さん</tspan></text></g></g><g
       id="g58"><g
         id="g60"
         clip-path="url(#clipPath64)"><text
           transform="matrix(1,0,0,-1,398.2,626.47)"
           style="font-variant:normal;font-size:10.5px;font-family:UDDigiKyokashoNK;-inkscape-font-specification:UDDigiKyokashoNK-R;writing-mode:lr-tb;fill:#000000;fill-opacity:1;fill-rule:nonzero;stroke:none"
           id="text68"><tspan
             x="0 8.0010004 17.9865 26.7225 37.2225"
             y="0"
             id="tspan66">ある鉄道</tspan></text></g></g><g
       id="g70"><g
         id="g72"
         clip-path="url(#clipPath76)"><text
           transform="matrix(1,0,0,-1,446.23,626.47)"
           style="font-variant:normal;font-size:10.5px;font-family:UDDigiKyokashoNK;-inkscape-font-specification:UDDigiKyokashoNK-R;writing-mode:lr-tb;fill:#000000;fill-opacity:1;fill-rule:nonzero;stroke:none"
           id="text80"><tspan
             x="0 9.7503004 17.5056"
             y="0"
             id="tspan78">グッズ</tspan></text></g></g><g
       id="g82"><g
         id="g84"
         clip-path="url(#clipPath88)"><text
           transform="matrix(1,0,0,-1,42.525,608.45)"
           style="font-variant:normal;font-size:10.5px;font-family:UDDigiKyokashoNK;-inkscape-font-specification:UDDigiKyokashoNK-R;writing-mode:lr-tb;fill:#000000;fill-opacity:1;fill-rule:nonzero;stroke:none"
           id="text92"><tspan
             x="0 10.5 21 28.98 39.27 47.985001"
             y="0"
             id="tspan90">販売イベント</tspan></text></g></g><g
       id="g94"><g
         id="g96"
         clip-path="url(#clipPath100)"><text
           transform="matrix(1,0,0,-1,97.3,608.45)"
           style="font-variant:normal;font-size:10.5px;font-family:UDDigiKyokashoNK;-inkscape-font-specification:UDDigiKyokashoNK-R;writing-mode:lr-tb;fill:#000000;fill-opacity:1;fill-rule:nonzero;stroke:none"
           id="text104"><tspan
             x="0 9.5003996"
             y="0"
             id="tspan102"></tspan></text></g></g><g
       id="g106"><g
         id="g108"
         clip-path="url(#clipPath112)"><text
           transform="matrix(1,0,0,-1,115.8,608.45)"
           style="font-variant:normal;font-size:10.5px;font-family:UDDigiKyokashoNK;-inkscape-font-specification:UDDigiKyokashoNK-R;writing-mode:lr-tb;fill:#000000;fill-opacity:1;fill-rule:nonzero;stroke:none"
           id="text116"><tspan
             x="0 10.5 19.74 29.483999 39.731998 48.972 58.737 68.470497 78.2145 86.719498 91.969498 102.4695 112.9695 122.7345 131.21851 139.461 149.205"
             y="0"
             id="tspan114">声をおかけいただき、出会いました。</tspan></text></g></g><g
       id="g118"><g
         id="g120"
         clip-path="url(#clipPath124)" /></g><g
       id="g126"><g
         id="g128"
         clip-path="url(#clipPath132)"><text
           transform="matrix(1,0,0,-1,53.025,590.45)"
           style="font-variant:normal;font-size:10.5px;font-family:UDDigiKyokashoNK;-inkscape-font-specification:UDDigiKyokashoNK-R;writing-mode:lr-tb;fill:#000000;fill-opacity:1;fill-rule:nonzero;stroke:none"
           id="text136"><tspan
             x="0 8.9879999 17.4825 26.7225 32.214001 41.202 51.439499 61.939499 72.681 80.9235 90.163498 98.899498 109.641 117.8835 125.118 133.3605 142.60049 152.586 162.33 172.31551 180.8205 186.3015 197.043 207.7845 218.2845 229.026 239.7675 249.74249 260.505 271.24649 278.2395 285.474 296.21552 306.957 315.19949 325.69949 336.44101 347.1825 357.6825 364.91699 371.91 379.1445 389.6445 400.38599 409.87799"
             y="0"
             id="tspan134">そし、それ以来も親しくしいただき、今回当部活の創部２０周年鉄道開業１５０周年を記</tspan></text></g></g><g
       id="g138"><g
         id="g140"
         clip-path="url(#clipPath144)"><text
           transform="matrix(1,0,0,-1,42.525,572.45)"
           style="font-variant:normal;font-size:10.5px;font-family:UDDigiKyokashoNK;-inkscape-font-specification:UDDigiKyokashoNK-R;writing-mode:lr-tb;fill:#000000;fill-opacity:1;fill-rule:nonzero;stroke:none"
           id="text148"><tspan
             x="0 10.5 18.7425 28.4865 37.233002 45.737999 55.723499 66.223503 76.964996 84.966003 93.208504 102.2385 107.6985 116.949 127.449 137.94901 146.685 156.681 165.711 175.43401 185.17799 194.922 204.687 214.662 222.66299 231.1575 239.90401 245.39549 255.89549 266.39551 275.89801 286.39801 296.89801 306.138 315.90302 325.62601 335.37 343.875 349.35599 357.60901 367.58401 376.3515 384.09 393.5925 404.0925 414.83401 420.08401"
             y="0"
             id="tspan146">念したコラボ企画し、ご相談させいただいたころ、特別許可をいただき、このよう見学・体</tspan></text></g></g><g
       id="g150"><g
         id="g152"
         clip-path="url(#clipPath156)"><text
           transform="matrix(1,0,0,-1,42.525,554.45)"
           style="font-variant:normal;font-size:10.5px;font-family:UDDigiKyokashoNK;-inkscape-font-specification:UDDigiKyokashoNK-R;writing-mode:lr-tb;fill:#000000;fill-opacity:1;fill-rule:nonzero;stroke:none"
           id="text160"><tspan
             x="0 10.5 21 30.24 40.740002 51.240002 60.48 69.226501 77.4795 85.480499 95.980499 106.2285 114.7335 123.228 131.4705 141.21449"
             y="0"
             id="tspan158">験会を実施するこがきました。</tspan></text></g></g><g
       id="g162"><g
         id="g164"
         clip-path="url(#clipPath168)" /></g><g
       id="g170"><g
         id="g172"
         clip-path="url(#clipPath176)" /></g><g
       id="g178"><g
         id="g180"
         clip-path="url(#clipPath184)"><text
           transform="matrix(1,0,0,-1,42.525,508.92)"
           style="font-variant:normal;font-size:12px;font-family:UDDigiKyokashoNK;-inkscape-font-specification:UDDigiKyokashoNK-B;writing-mode:lr-tb;fill:#000000;fill-opacity:1;fill-rule:nonzero;stroke:none"
           id="text188"><tspan
             x="0"
             y="0"
             id="tspan186">◯</tspan></text></g></g><g
       id="g190"><g
         id="g192"
         clip-path="url(#clipPath196)"><text
           transform="matrix(1,0,0,-1,54.525,508.92)"
           style="font-variant:normal;font-size:12px;font-family:UDDigiKyokashoNK;-inkscape-font-specification:UDDigiKyokashoNK-B;writing-mode:lr-tb;fill:#000000;fill-opacity:1;fill-rule:nonzero;stroke:none"
           id="text200"><tspan
             x="0 12 24 36 48 60 71.519997 83.519997 95.519997 107.004 119.004"
             y="0"
             id="tspan198">株式会社赤い電車の歴史</tspan></text></g></g><g
       id="g202"><g
         id="g204"
         clip-path="url(#clipPath208)" /></g><g
       id="g210"><g
         id="g212"
         clip-path="url(#clipPath216)"><text
           transform="matrix(1,0,0,-1,42.525,482.42)"
           style="font-variant:normal;font-size:10.5px;font-family:UDDigiKyokashoNK;-inkscape-font-specification:UDDigiKyokashoNK-R;writing-mode:lr-tb;fill:#000000;fill-opacity:1;fill-rule:nonzero;stroke:none"
           id="text220"><tspan
             x="0 10.5"
             y="0"
             id="tspan218">昭和</tspan></text></g></g><g
       id="g222"><g
         id="g224"
         clip-path="url(#clipPath228)"><text
           transform="matrix(1,0,0,-1,63.525,482.42)"
           style="font-variant:normal;font-size:10.5px;font-family:UDDigiKyokashoNK;-inkscape-font-specification:UDDigiKyokashoNK-R;writing-mode:lr-tb;fill:#000000;fill-opacity:1;fill-rule:nonzero;stroke:none"
           id="text232"><tspan
             x="0 6.993 13.986 24.486 31.479"
             y="0"
             id="tspan230">６３年８月</tspan></text></g></g><g
       id="g234"><g
         id="g236"
         clip-path="url(#clipPath240)" /></g><g
       id="g242"><g
         id="g244"
         clip-path="url(#clipPath248)" /></g><g
       id="g250"><g
         id="g252"
         clip-path="url(#clipPath256)"><text
           transform="matrix(1,0,0,-1,126.55,482.42)"
           style="font-variant:normal;font-size:10.5px;font-family:UDDigiKyokashoNK;-inkscape-font-specification:UDDigiKyokashoNK-R;writing-mode:lr-tb;fill:#000000;fill-opacity:1;fill-rule:nonzero;stroke:none"
           id="text260"><tspan
             x="0 10.5 21 31.5 42 52.5 63 72.502502 83.002502"
             y="0"
             id="tspan258">栃木県真岡市軽食</tspan></text></g></g><g
       id="g262"><g
         id="g264"
         clip-path="url(#clipPath268)"><text
           transform="matrix(1,0,0,-1,220.1,482.42)"
           style="font-variant:normal;font-size:10.5px;font-family:UDDigiKyokashoNK;-inkscape-font-specification:UDDigiKyokashoNK-R;writing-mode:lr-tb;fill:#000000;fill-opacity:1;fill-rule:nonzero;stroke:none"
           id="text272"><tspan
             x="0"
             y="0"
             id="tspan270">/</tspan></text></g></g><g
       id="g274"><g
         id="g276"
         clip-path="url(#clipPath280)"><text
           transform="matrix(1,0,0,-1,225.35,482.42)"
           style="font-variant:normal;font-size:10.5px;font-family:UDDigiKyokashoNK;-inkscape-font-specification:UDDigiKyokashoNK-R;writing-mode:lr-tb;fill:#000000;fill-opacity:1;fill-rule:nonzero;stroke:none"
           id="text284"><tspan
             x="0 10.5 21 27.51 38.009998 47.775002 58.275002 68.775002 75.253502 84.4935 93.523499 103.236 112.98 121.716"
             y="0"
             id="tspan282">喫茶「赤い電車」をオープン。</tspan></text></g></g><g
       id="g286"><g
         id="g288"
         clip-path="url(#clipPath292)" /></g><g
       id="g294"><g
         id="g296"
         clip-path="url(#clipPath300)"><text
           transform="matrix(1,0,0,-1,42.525,464.4)"
           style="font-variant:normal;font-size:10.5px;font-family:UDDigiKyokashoNK;-inkscape-font-specification:UDDigiKyokashoNK-R;writing-mode:lr-tb;fill:#000000;fill-opacity:1;fill-rule:nonzero;stroke:none"
           id="text304"><tspan
             x="0 10.5"
             y="0"
             id="tspan302">平成</tspan></text></g></g><g
       id="g306"><g
         id="g308"
         clip-path="url(#clipPath312)"><text
           transform="matrix(1,0,0,-1,63.525,464.4)"
           style="font-variant:normal;font-size:10.5px;font-family:UDDigiKyokashoNK;-inkscape-font-specification:UDDigiKyokashoNK-R;writing-mode:lr-tb;fill:#000000;fill-opacity:1;fill-rule:nonzero;stroke:none"
           id="text316"><tspan
             x="0 6.993 17.493 24.486 31.479"
             y="0"
             id="tspan314">２年１０月</tspan></text></g></g><g
       id="g318"><g
         id="g320"
         clip-path="url(#clipPath324)" /></g><g
       id="g326"><g
         id="g328"
         clip-path="url(#clipPath332)"><text
           transform="matrix(1,0,0,-1,126.55,464.4)"
           style="font-variant:normal;font-size:10.5px;font-family:UDDigiKyokashoNK;-inkscape-font-specification:UDDigiKyokashoNK-R;writing-mode:lr-tb;fill:#000000;fill-opacity:1;fill-rule:nonzero;stroke:none"
           id="text336"><tspan
             x="0 9.0299997 16.495501 25.987499 35.4795 45.244499 54.967499 62.706001 72.471001 81.7005 92.2005 102.7005 113.2005 123.7005 130.21049 139.4505 149.1945 158.43449 165.942 175.686 185.18851 194.439 200.94901"
             y="0"
             id="tspan334">オリジナルグッズを販売開始（マグカップ）。</tspan></text></g></g><g
       id="g338"><g
         id="g340"
         clip-path="url(#clipPath344)" /></g><g
       id="g346"><g
         id="g348"
         clip-path="url(#clipPath352)"><text
           transform="matrix(1,0,0,-1,42.525,446.4)"
           style="font-variant:normal;font-size:10.5px;font-family:UDDigiKyokashoNK;-inkscape-font-specification:UDDigiKyokashoNK-R;writing-mode:lr-tb;fill:#000000;fill-opacity:1;fill-rule:nonzero;stroke:none"
           id="text356"><tspan
             x="0 10.5"
             y="0"
             id="tspan354">平成</tspan></text></g></g><g
       id="g358"><g
         id="g360"
         clip-path="url(#clipPath364)"><text
           transform="matrix(1,0,0,-1,63.525,446.4)"
           style="font-variant:normal;font-size:10.5px;font-family:UDDigiKyokashoNK;-inkscape-font-specification:UDDigiKyokashoNK-R;writing-mode:lr-tb;fill:#000000;fill-opacity:1;fill-rule:nonzero;stroke:none"
           id="text368"><tspan
             x="0 6.993 17.493 24.486"
             y="0"
             id="tspan366">８年４月</tspan></text></g></g><g
       id="g370"><g
         id="g372"
         clip-path="url(#clipPath376)" /></g><g
       id="g378"><g
         id="g380"
         clip-path="url(#clipPath384)"><text
           transform="matrix(1,0,0,-1,126.55,446.4)"
           style="font-variant:normal;font-size:10.5px;font-family:UDDigiKyokashoNK;-inkscape-font-specification:UDDigiKyokashoNK-R;writing-mode:lr-tb;fill:#000000;fill-opacity:1;fill-rule:nonzero;stroke:none"
           id="text388"><tspan
             x="0 8.7465 17.4825 26.7225 34.975498 44.719501 53.214001 62.958 71.956497 81.196503 90.688499 99.718498 104.9685 115.4685 125.9685 136.46851 146.96851 156.177 166.677 177.177 187.677 197.1795 207.6795 218.1795"
             y="0"
             id="tspan386">コンピューターシステム、制作機器を本格的導入。</tspan></text></g></g><g
       id="g390"><g
         id="g392"
         clip-path="url(#clipPath396)" /></g><g
       id="g398"><g
         id="g400"
         clip-path="url(#clipPath404)"><text
           transform="matrix(1,0,0,-1,42.525,428.4)"
           style="font-variant:normal;font-size:10.5px;font-family:UDDigiKyokashoNK;-inkscape-font-specification:UDDigiKyokashoNK-R;writing-mode:lr-tb;fill:#000000;fill-opacity:1;fill-rule:nonzero;stroke:none"
           id="text408"><tspan
             x="0 10.5"
             y="0"
             id="tspan406">平成</tspan></text></g></g><g
       id="g410"><g
         id="g412"
         clip-path="url(#clipPath416)"><text
           transform="matrix(1,0,0,-1,63.525,428.4)"
           style="font-variant:normal;font-size:10.5px;font-family:UDDigiKyokashoNK;-inkscape-font-specification:UDDigiKyokashoNK-R;writing-mode:lr-tb;fill:#000000;fill-opacity:1;fill-rule:nonzero;stroke:none"
           id="text420"><tspan
             x="0 6.993 17.493 24.486"
             y="0"
             id="tspan418">８年７月</tspan></text></g></g><g
       id="g422"><g
         id="g424"
         clip-path="url(#clipPath428)" /></g><g
       id="g430"><g
         id="g432"
         clip-path="url(#clipPath436)"><text
           transform="matrix(1,0,0,-1,126.55,428.4)"
           style="font-variant:normal;font-size:10.5px;font-family:UDDigiKyokashoNK;-inkscape-font-specification:UDDigiKyokashoNK-R;writing-mode:lr-tb;fill:#000000;fill-opacity:1;fill-rule:nonzero;stroke:none"
           id="text440"><tspan
             x="0 10.5 21 31.5 42 51.743999 59.482498 69.247498 79.222504 89.722504 100.2225 105.4725 115.9725 126.4725 135.72301 146.22301 156.72301"
             y="0"
             id="tspan438">鉄道関連グッズの生産・販売を開始。</tspan></text></g></g><g
       id="g442"><g
         id="g444"
         clip-path="url(#clipPath448)" /></g><g
       id="g450"><g
         id="g452"
         clip-path="url(#clipPath456)"><text
           transform="matrix(1,0,0,-1,42.525,410.4)"
           style="font-variant:normal;font-size:10.5px;font-family:UDDigiKyokashoNK;-inkscape-font-specification:UDDigiKyokashoNK-R;writing-mode:lr-tb;fill:#000000;fill-opacity:1;fill-rule:nonzero;stroke:none"
           id="text460"><tspan
             x="0 10.5"
             y="0"
             id="tspan458">平成</tspan></text></g></g><g
       id="g462"><g
         id="g464"
         clip-path="url(#clipPath468)"><text
           transform="matrix(1,0,0,-1,63.525,410.4)"
           style="font-variant:normal;font-size:10.5px;font-family:UDDigiKyokashoNK;-inkscape-font-specification:UDDigiKyokashoNK-R;writing-mode:lr-tb;fill:#000000;fill-opacity:1;fill-rule:nonzero;stroke:none"
           id="text472"><tspan
             x="0 6.993 17.493 24.486"
             y="0"
             id="tspan470">９年７月</tspan></text></g></g><g
       id="g474"><g
         id="g476"
         clip-path="url(#clipPath480)" /></g><g
       id="g482"><g
         id="g484"
         clip-path="url(#clipPath488)"><text
           transform="matrix(1,0,0,-1,126.55,410.4)"
           style="font-variant:normal;font-size:10.5px;font-family:UDDigiKyokashoNK;-inkscape-font-specification:UDDigiKyokashoNK-R;writing-mode:lr-tb;fill:#000000;fill-opacity:1;fill-rule:nonzero;stroke:none"
           id="text492"><tspan
             x="0 10.5"
             y="0"
             id="tspan490">軽食</tspan></text></g></g><g
       id="g494"><g
         id="g496"
         clip-path="url(#clipPath500)"><text
           transform="matrix(1,0,0,-1,147.58,410.4)"
           style="font-variant:normal;font-size:10.5px;font-family:UDDigiKyokashoNK;-inkscape-font-specification:UDDigiKyokashoNK-R;writing-mode:lr-tb;fill:#000000;fill-opacity:1;fill-rule:nonzero;stroke:none"
           id="text504"><tspan
             x="0"
             y="0"
             id="tspan502">/</tspan></text></g></g><g
       id="g506"><g
         id="g508"
         clip-path="url(#clipPath512)"><text
           transform="matrix(1,0,0,-1,152.83,410.4)"
           style="font-variant:normal;font-size:10.5px;font-family:UDDigiKyokashoNK;-inkscape-font-specification:UDDigiKyokashoNK-R;writing-mode:lr-tb;fill:#000000;fill-opacity:1;fill-rule:nonzero;stroke:none"
           id="text516"><tspan
             x="0 10.5 21 29.000999 37.2435 46.273499 56.248501 66.748497 77.248497 86.477997 96.977997 107.478"
             y="0"
             id="tspan514">喫茶しの営業を終了。</tspan></text></g></g><g
       id="g518"><g
         id="g520"
         clip-path="url(#clipPath524)" /></g><g
       id="g526"><g
         id="g528"
         clip-path="url(#clipPath532)"><text
           transform="matrix(1,0,0,-1,42.525,392.38)"
           style="font-variant:normal;font-size:10.5px;font-family:UDDigiKyokashoNK;-inkscape-font-specification:UDDigiKyokashoNK-R;writing-mode:lr-tb;fill:#000000;fill-opacity:1;fill-rule:nonzero;stroke:none"
           id="text536"><tspan
             x="0 10.5"
             y="0"
             id="tspan534">平成</tspan></text></g></g><g
       id="g538"><g
         id="g540"
         clip-path="url(#clipPath544)"><text
           transform="matrix(1,0,0,-1,63.525,392.38)"
           style="font-variant:normal;font-size:10.5px;font-family:UDDigiKyokashoNK;-inkscape-font-specification:UDDigiKyokashoNK-R;writing-mode:lr-tb;fill:#000000;fill-opacity:1;fill-rule:nonzero;stroke:none"
           id="text548"><tspan
             x="0 6.993 13.986 24.486 31.479"
             y="0"
             id="tspan546">１１年１月</tspan></text></g></g><g
       id="g550"><g
         id="g552"
         clip-path="url(#clipPath556)" /></g><g
       id="g558"><g
         id="g560"
         clip-path="url(#clipPath564)"><text
           transform="matrix(1,0,0,-1,126.55,392.38)"
           style="font-variant:normal;font-size:10.5px;font-family:UDDigiKyokashoNK;-inkscape-font-specification:UDDigiKyokashoNK-R;writing-mode:lr-tb;fill:#000000;fill-opacity:1;fill-rule:nonzero;stroke:none"
           id="text568"><tspan
             x="0 10.5 21 30.24 40.740002 51.240002 61.740002 72.239998 82.739998 93.239998 102.7425 113.2425 123.7425"
             y="0"
             id="tspan566">拠点を栃木県小山市移転。</tspan></text></g></g><g
       id="g570"><g
         id="g572"
         clip-path="url(#clipPath576)" /></g><g
       id="g578"><g
         id="g580"
         clip-path="url(#clipPath584)"><text
           transform="matrix(1,0,0,-1,42.525,374.38)"
           style="font-variant:normal;font-size:10.5px;font-family:UDDigiKyokashoNK;-inkscape-font-specification:UDDigiKyokashoNK-R;writing-mode:lr-tb;fill:#000000;fill-opacity:1;fill-rule:nonzero;stroke:none"
           id="text588"><tspan
             x="0 10.5"
             y="0"
             id="tspan586">平成</tspan></text></g></g><g
       id="g590"><g
         id="g592"
         clip-path="url(#clipPath596)"><text
           transform="matrix(1,0,0,-1,63.525,374.38)"
           style="font-variant:normal;font-size:10.5px;font-family:UDDigiKyokashoNK;-inkscape-font-specification:UDDigiKyokashoNK-R;writing-mode:lr-tb;fill:#000000;fill-opacity:1;fill-rule:nonzero;stroke:none"
           id="text600"><tspan
             x="0 6.993 13.986 24.486 31.479"
             y="0"
             id="tspan598">１５年３月</tspan></text></g></g><g
       id="g602"><g
         id="g604"
         clip-path="url(#clipPath608)" /></g><g
       id="g610"><g
         id="g612"
         clip-path="url(#clipPath616)"><text
           transform="matrix(1,0,0,-1,126.55,374.38)"
           style="font-variant:normal;font-size:10.5px;font-family:UDDigiKyokashoNK;-inkscape-font-specification:UDDigiKyokashoNK-R;writing-mode:lr-tb;fill:#000000;fill-opacity:1;fill-rule:nonzero;stroke:none"
           id="text620"><tspan
             x="0 6.5100002 17.01 27.51 38.009998 48.509998 57.75 67.494003 74.245499 82.487999 89.985001 99.970497 107.9505 117.1905 123.9735 132.7095 139.2195 148.44901 158.94901 169.44901"
             y="0"
             id="tspan618">「有限会社アートクリエイション」を設立。</tspan></text></g></g><g
       id="g622"><g
         id="g624"
         clip-path="url(#clipPath628)" /></g><g
       id="g630"><g
         id="g632"
         clip-path="url(#clipPath636)"><text
           transform="matrix(1,0,0,-1,42.525,356.38)"
           style="font-variant:normal;font-size:10.5px;font-family:UDDigiKyokashoNK;-inkscape-font-specification:UDDigiKyokashoNK-R;writing-mode:lr-tb;fill:#000000;fill-opacity:1;fill-rule:nonzero;stroke:none"
           id="text640"><tspan
             x="0 10.5"
             y="0"
             id="tspan638">平成</tspan></text></g></g><g
       id="g642"><g
         id="g644"
         clip-path="url(#clipPath648)"><text
           transform="matrix(1,0,0,-1,63.525,356.38)"
           style="font-variant:normal;font-size:10.5px;font-family:UDDigiKyokashoNK;-inkscape-font-specification:UDDigiKyokashoNK-R;writing-mode:lr-tb;fill:#000000;fill-opacity:1;fill-rule:nonzero;stroke:none"
           id="text652"><tspan
             x="0 6.993 13.986 24.486 31.479 38.472"
             y="0"
             id="tspan650">１５年１０月</tspan></text></g></g><g
       id="g654"><g
         id="g656"
         clip-path="url(#clipPath660)" /></g><g
       id="g662"><g
         id="g664"
         clip-path="url(#clipPath668)"><text
           transform="matrix(1,0,0,-1,126.55,356.38)"
           style="font-variant:normal;font-size:10.5px;font-family:UDDigiKyokashoNK;-inkscape-font-specification:UDDigiKyokashoNK-R;writing-mode:lr-tb;fill:#000000;fill-opacity:1;fill-rule:nonzero;stroke:none"
           id="text672"><tspan
             x="0 10.5 21 31.5 42"
             y="0"
             id="tspan670">京急百貨店</tspan></text></g></g><g
       id="g674"><g
         id="g676"
         clip-path="url(#clipPath680)"><text
           transform="matrix(1,0,0,-1,181.85,356.38)"
           style="font-variant:normal;font-size:10.5px;font-family:UDDigiKyokashoNK;-inkscape-font-specification:UDDigiKyokashoNK-R;writing-mode:lr-tb;fill:#000000;fill-opacity:1;fill-rule:nonzero;stroke:none"
           id="text684"><tspan
             x="0"
             y="0"
             id="tspan682">5</tspan></text></g></g><g
       id="g686"><g
         id="g688"
         clip-path="url(#clipPath692)"><text
           transform="matrix(1,0,0,-1,191.6,356.38)"
           style="font-variant:normal;font-size:10.5px;font-family:UDDigiKyokashoNK;-inkscape-font-specification:UDDigiKyokashoNK-R;writing-mode:lr-tb;fill:#000000;fill-opacity:1;fill-rule:nonzero;stroke:none"
           id="text696"><tspan
             x="0 10.5 20.002501 30.502501 41.002499 51.502499 58.012501 66.254997 73.9935 81.490501 86.740501 93.491997 101.745 109.725 118.482 124.992 134.2215 144.7215 155.2215"
             y="0"
             id="tspan694">階販売店「レッド・トレイン」を出店。</tspan></text></g></g><g
       id="g698"><g
         id="g700"
         clip-path="url(#clipPath704)" /></g><g
       id="g706"><g
         id="g708"
         clip-path="url(#clipPath712)"><text
           transform="matrix(1,0,0,-1,42.525,338.38)"
           style="font-variant:normal;font-size:10.5px;font-family:UDDigiKyokashoNK;-inkscape-font-specification:UDDigiKyokashoNK-R;writing-mode:lr-tb;fill:#000000;fill-opacity:1;fill-rule:nonzero;stroke:none"
           id="text716"><tspan
             x="0 10.5"
             y="0"
             id="tspan714">平成</tspan></text></g></g><g
       id="g718"><g
         id="g720"
         clip-path="url(#clipPath724)"><text
           transform="matrix(1,0,0,-1,63.525,338.38)"
           style="font-variant:normal;font-size:10.5px;font-family:UDDigiKyokashoNK;-inkscape-font-specification:UDDigiKyokashoNK-R;writing-mode:lr-tb;fill:#000000;fill-opacity:1;fill-rule:nonzero;stroke:none"
           id="text728"><tspan
             x="0 6.993 13.986 24.486 31.479"
             y="0"
             id="tspan726">１８年６月</tspan></text></g></g><g
       id="g730"><g
         id="g732"
         clip-path="url(#clipPath736)" /></g><g
       id="g738"><g
         id="g740"
         clip-path="url(#clipPath744)"><text
           transform="matrix(1,0,0,-1,126.55,338.38)"
           style="font-variant:normal;font-size:10.5px;font-family:UDDigiKyokashoNK;-inkscape-font-specification:UDDigiKyokashoNK-R;writing-mode:lr-tb;fill:#000000;fill-opacity:1;fill-rule:nonzero;stroke:none"
           id="text748"><tspan
             x="0 10.5 21 31.5 42 52.248001 60.7425 71.2425 81.7425 92.2425 102.7425 112.7385 117.9885 128.48849 138.98849 148.2285 154.73849 165.23849 175.00349 185.50349 196.00349 202.48199 211.9845 222.4845 232.9845"
             y="0"
             id="tspan746">有限会社から株式会社へ。社名を「赤い電車」変更。</tspan></text></g></g><g
       id="g750"><g
         id="g752"
         clip-path="url(#clipPath756)" /></g><g
       id="g758"><g
         id="g760"
         clip-path="url(#clipPath764)"><text
           transform="matrix(1,0,0,-1,42.525,320.35)"
           style="font-variant:normal;font-size:10.5px;font-family:UDDigiKyokashoNK;-inkscape-font-specification:UDDigiKyokashoNK-R;writing-mode:lr-tb;fill:#000000;fill-opacity:1;fill-rule:nonzero;stroke:none"
           id="text768"><tspan
             x="0 10.5"
             y="0"
             id="tspan766">平成</tspan></text></g></g><g
       id="g770"><g
         id="g772"
         clip-path="url(#clipPath776)"><text
           transform="matrix(1,0,0,-1,63.525,320.35)"
           style="font-variant:normal;font-size:10.5px;font-family:UDDigiKyokashoNK;-inkscape-font-specification:UDDigiKyokashoNK-R;writing-mode:lr-tb;fill:#000000;fill-opacity:1;fill-rule:nonzero;stroke:none"
           id="text780"><tspan
             x="0 6.993 13.986 24.486 31.479"
             y="0"
             id="tspan778">２１年４月</tspan></text></g></g><g
       id="g782"><g
         id="g784"
         clip-path="url(#clipPath788)" /></g><g
       id="g790"><g
         id="g792"
         clip-path="url(#clipPath796)"><text
           transform="matrix(1,0,0,-1,126.55,320.35)"
           style="font-variant:normal;font-size:10.5px;font-family:UDDigiKyokashoNK;-inkscape-font-specification:UDDigiKyokashoNK-R;writing-mode:lr-tb;fill:#000000;fill-opacity:1;fill-rule:nonzero;stroke:none"
           id="text800"><tspan
             x="0 7.98 16.737 25.231501 34.975498 44.226002 51.9645 58.716 69.216003 79.716003 90.216003 96.725998 107.226 116.991 127.491 137.991 145.467 153.20551 159.957 168.70351 177.73351 184.20151 193.4415 203.9415 214.4415"
             y="0"
             id="tspan798">インターネット販売店「赤い電車ドットコム」を開店。</tspan></text></g></g><g
       id="g802"><g
         id="g804"
         clip-path="url(#clipPath808)" /></g><g
       id="g810"><g
         id="g812"
         clip-path="url(#clipPath816)"><text
           transform="matrix(1,0,0,-1,42.525,302.35)"
           style="font-variant:normal;font-size:10.5px;font-family:UDDigiKyokashoNK;-inkscape-font-specification:UDDigiKyokashoNK-R;writing-mode:lr-tb;fill:#000000;fill-opacity:1;fill-rule:nonzero;stroke:none"
           id="text820"><tspan
             x="0 10.5"
             y="0"
             id="tspan818">平成</tspan></text></g></g><g
       id="g822"><g
         id="g824"
         clip-path="url(#clipPath828)"><text
           transform="matrix(1,0,0,-1,63.525,302.35)"
           style="font-variant:normal;font-size:10.5px;font-family:UDDigiKyokashoNK;-inkscape-font-specification:UDDigiKyokashoNK-R;writing-mode:lr-tb;fill:#000000;fill-opacity:1;fill-rule:nonzero;stroke:none"
           id="text832"><tspan
             x="0 6.993 13.986 24.486 31.479"
             y="0"
             id="tspan830">３０年７月</tspan></text></g></g><g
       id="g834"><g
         id="g836"
         clip-path="url(#clipPath840)" /></g><g
       id="g842"><g
         id="g844"
         clip-path="url(#clipPath848)"><text
           transform="matrix(1,0,0,-1,126.55,302.35)"
           style="font-variant:normal;font-size:10.5px;font-family:UDDigiKyokashoNK;-inkscape-font-specification:UDDigiKyokashoNK-R;writing-mode:lr-tb;fill:#000000;fill-opacity:1;fill-rule:nonzero;stroke:none"
           id="text852"><tspan
             x="0 10.5 21 31.5 42 52.5 62.002499 72.502502"
             y="0"
             id="tspan850">代表取締役井上</tspan></text></g></g><g
       id="g854"><g
         id="g856"
         clip-path="url(#clipPath860)" /></g><g
       id="g862"><g
         id="g864"
         clip-path="url(#clipPath868)"><text
           transform="matrix(1,0,0,-1,212.85,302.35)"
           style="font-variant:normal;font-size:10.5px;font-family:UDDigiKyokashoNK;-inkscape-font-specification:UDDigiKyokashoNK-R;writing-mode:lr-tb;fill:#000000;fill-opacity:1;fill-rule:nonzero;stroke:none"
           id="text872"><tspan
             x="0 10.5"
             y="0"
             id="tspan870">健太</tspan></text></g></g><g
       id="g874"><g
         id="g876"
         clip-path="url(#clipPath880)"><text
           transform="matrix(1,0,0,-1,233.88,302.35)"
           style="font-variant:normal;font-size:10.5px;font-family:UDDigiKyokashoNK;-inkscape-font-specification:UDDigiKyokashoNK-R;writing-mode:lr-tb;fill:#000000;fill-opacity:1;fill-rule:nonzero;stroke:none"
           id="text884"><tspan
             x="0"
             y="0"
             id="tspan882">氏</tspan></text></g></g><g
       id="g886"><g
         id="g888"
         clip-path="url(#clipPath892)"><text
           transform="matrix(1,0,0,-1,244.38,302.35)"
           style="font-variant:normal;font-size:10.5px;font-family:UDDigiKyokashoNK;-inkscape-font-specification:UDDigiKyokashoNK-R;writing-mode:lr-tb;fill:#000000;fill-opacity:1;fill-rule:nonzero;stroke:none"
           id="text896"><tspan
             x="0 10.5 21 31.5"
             y="0"
             id="tspan894">が就任。</tspan></text></g></g><g
       id="g898"><g
         id="g900"
         clip-path="url(#clipPath904)" /></g><g
       id="g906"><g
         id="g908"
         clip-path="url(#clipPath912)" /></g><g
       id="g914"><g
         id="g916"
         clip-path="url(#clipPath920)" /></g><g
       id="g922"><g
         id="g924"
         clip-path="url(#clipPath928)" /></g></g></svg>
